<svg width="16" height="16" viewBox="0 0 16 16" fill="none" xmlns="http://www.w3.org/2000/svg">
<path d="M0.5 2.1625C0.5 1.24417 1.24417 0.5 2.1625 0.5H13.8375C14.7558 0.5 15.5 1.24417 15.5 2.1625V13.8375C15.5 14.2784 15.3248 14.7013 15.0131 15.0131C14.7013 15.3248 14.2784 15.5 13.8375 15.5H2.1625C1.72158 15.5 1.29871 15.3248 0.986935 15.0131C0.675156 14.7013 0.5 14.2784 0.5 13.8375V2.1625ZM2.16667 2.16667V13.8333H13.8333V2.16667H2.16667ZM4.64333 13.15C4.13082 12.928 3.64196 12.655 3.18417 12.335C3.71272 11.5159 4.4383 10.8424 5.29449 10.3762C6.15068 9.91004 7.11013 9.66608 8.085 9.66667C10.085 9.66667 11.8492 10.6725 12.9 12.2058C12.451 12.538 11.9697 12.8242 11.4633 13.06C11.0774 12.525 10.5698 12.0894 9.98242 11.7892C9.39503 11.489 8.74467 11.3327 8.085 11.3333C6.65583 11.3333 5.39333 12.0533 4.64333 13.15V13.15ZM8 8.83333C7.61698 8.83333 7.23771 8.75789 6.88384 8.61132C6.52997 8.46474 6.20844 8.2499 5.93761 7.97906C5.66677 7.70822 5.45193 7.38669 5.30535 7.03283C5.15877 6.67896 5.08333 6.29969 5.08333 5.91667C5.08333 5.53364 5.15877 5.15437 5.30535 4.80051C5.45193 4.44664 5.66677 4.12511 5.93761 3.85427C6.20844 3.58343 6.52997 3.36859 6.88384 3.22202C7.23771 3.07544 7.61698 3 8 3C8.77355 3 9.51541 3.30729 10.0624 3.85427C10.6094 4.40125 10.9167 5.14312 10.9167 5.91667C10.9167 6.69021 10.6094 7.43208 10.0624 7.97906C9.51541 8.52604 8.77355 8.83333 8 8.83333ZM8 7.16667C8.33152 7.16667 8.64946 7.03497 8.88388 6.80055C9.1183 6.56613 9.25 6.24819 9.25 5.91667C9.25 5.58515 9.1183 5.2672 8.88388 5.03278C8.64946 4.79836 8.33152 4.66667 8 4.66667C7.66848 4.66667 7.35054 4.79836 7.11612 5.03278C6.8817 5.2672 6.75 5.58515 6.75 5.91667C6.75 6.24819 6.8817 6.56613 7.11612 6.80055C7.35054 7.03497 7.66848 7.16667 8 7.16667Z" fill="#58636E"/>
</svg>
