<svg width="18" height="18" viewBox="0 0 18 18" fill="none" xmlns="http://www.w3.org/2000/svg">
<path d="M0.666992 3.16602L6.50033 0.666016L11.5003 3.16602L16.7528 0.915182C16.8162 0.888002 16.8854 0.87699 16.9541 0.883134C17.0228 0.889279 17.0889 0.912387 17.1465 0.950386C17.2041 0.988385 17.2513 1.04009 17.284 1.10085C17.3167 1.16161 17.3337 1.22953 17.3337 1.29852V14.8327L11.5003 17.3327L6.50033 14.8327L1.24783 17.0835C1.18442 17.1107 1.11526 17.1217 1.04655 17.1156C0.977836 17.1094 0.911725 17.0863 0.854148 17.0483C0.796571 17.0103 0.74933 16.9586 0.716665 16.8979C0.683999 16.8371 0.666931 16.7692 0.666992 16.7002V3.16602ZM12.3337 15.1619L15.667 13.7335V3.19352L12.3337 4.62185V15.1619ZM10.667 15.0527V4.61268L7.33366 2.94602V13.386L10.667 15.0527ZM5.66699 13.3768V2.83685L2.33366 4.26518V14.8052L5.66699 13.3768Z" fill="#58636E"/>
</svg>
