<svg width="21" height="23" viewBox="0 0 21 23" fill="none" xmlns="http://www.w3.org/2000/svg">
<path d="M14.2995 7.04938L7.70084 13.6492C7.58941 13.7568 7.50053 13.8856 7.43939 14.0279C7.37824 14.1702 7.34606 14.3233 7.34471 14.4782C7.34337 14.6332 7.37289 14.7868 7.43155 14.9302C7.49021 15.0735 7.57684 15.2038 7.68638 15.3133C7.79592 15.4229 7.92618 15.5095 8.06956 15.5682C8.21294 15.6268 8.36656 15.6563 8.52147 15.655C8.67638 15.6537 8.82947 15.6215 8.97181 15.5603C9.11415 15.4992 9.24288 15.4103 9.35051 15.2989L15.9503 8.70021C16.6068 8.04378 16.9756 7.15346 16.9756 6.22513C16.9756 5.29679 16.6068 4.40648 15.9503 3.75004C15.2939 3.09361 14.4036 2.72483 13.4753 2.72483C12.5469 2.72483 11.6566 3.09361 11.0002 3.75004L4.40034 10.3499C3.84743 10.889 3.40707 11.5326 3.10482 12.2433C2.80257 12.9539 2.64444 13.7175 2.6396 14.4898C2.63476 15.262 2.78331 16.0275 3.07664 16.7419C3.36996 17.4563 3.80221 18.1054 4.34832 18.6514C4.89444 19.1974 5.54354 19.6296 6.25797 19.9228C6.9724 20.216 7.73795 20.3645 8.5102 20.3595C9.28245 20.3546 10.046 20.1963 10.7566 19.894C11.4673 19.5916 12.1108 19.1512 12.6498 18.5982L19.2497 11.9995L20.8993 13.6492L14.2995 20.249C13.5411 21.0074 12.6408 21.609 11.6499 22.0194C10.659 22.4299 9.59702 22.6411 8.52451 22.6411C7.45199 22.6411 6.38997 22.4299 5.3991 22.0194C4.40822 21.609 3.50789 21.0074 2.74951 20.249C1.99112 19.4907 1.38954 18.5903 0.979104 17.5995C0.56867 16.6086 0.357422 15.5466 0.357422 14.474C0.357422 13.4015 0.56867 12.3395 0.979104 11.3486C1.38954 10.3578 1.99112 9.45743 2.74951 8.69904L9.35051 2.10038C10.4507 1.03779 11.9242 0.44982 13.4537 0.463111C14.9832 0.476402 16.4462 1.08989 17.5278 2.17143C18.6093 3.25298 19.2228 4.71605 19.2361 6.24554C19.2494 7.77502 18.6614 9.24853 17.5988 10.3487L11.0002 16.9509C10.6751 17.2759 10.2891 17.5337 9.86437 17.7096C9.43962 17.8855 8.9844 17.976 8.52468 17.9759C8.06496 17.9759 7.60975 17.8853 7.18504 17.7093C6.76034 17.5333 6.37445 17.2754 6.04942 16.9503C5.72439 16.6252 5.46657 16.2392 5.2907 15.8145C5.11482 15.3897 5.02433 14.9345 5.02438 14.4748C5.02443 14.0151 5.11504 13.5599 5.29101 13.1352C5.46699 12.7105 5.7249 12.3246 6.05001 11.9995L12.6498 5.39971L14.2995 7.04938Z" fill="#58636E"/>
</svg>
