<svg width="24" height="24" viewBox="0 0 24 24" fill="none" xmlns="http://www.w3.org/2000/svg">
<g clip-path="url(#clip0_865_4423)">
<path d="M23.6383 14.9031C22.0355 21.3317 15.5244 25.2441 9.09505 23.641C2.6683 22.0382 -1.24408 15.5267 0.359423 9.09847C1.96142 2.6691 8.47255 -1.24365 14.9 0.359098C21.329 1.96185 25.241 8.4741 23.6383 14.9031Z" fill="#F7931A"/>
<path d="M17.2901 10.2908C17.529 8.69402 16.3132 7.83564 14.6508 7.26302L15.1901 5.10002L13.8735 4.77189L13.3485 6.87789C13.0023 6.79164 12.6468 6.71027 12.2936 6.62964L12.8223 4.50977L11.5065 4.18164L10.9668 6.34389C10.6803 6.27864 10.3991 6.21414 10.1261 6.14627L10.1276 6.13952L8.31184 5.68614L7.96159 7.09239C7.96159 7.09239 8.93847 7.31627 8.91784 7.33014C9.45109 7.46327 9.54747 7.81614 9.53134 8.09589L8.91709 10.56C8.95384 10.5694 9.00147 10.5829 9.05397 10.6039C9.01009 10.593 8.96322 10.581 8.91484 10.5694L8.05384 14.0213C7.98859 14.1833 7.82322 14.4263 7.45047 14.334C7.46359 14.3531 6.49347 14.0951 6.49347 14.0951L5.83984 15.6023L7.55322 16.0294C7.87197 16.1093 8.18434 16.1929 8.49184 16.2716L7.94697 18.4594L9.26209 18.7875L9.80172 16.623C10.161 16.7205 10.5097 16.8105 10.851 16.8953L10.3132 19.0496L11.6298 19.3778L12.1747 17.1941C14.4198 17.619 16.1081 17.4476 16.8187 15.417C17.3913 13.782 16.7902 12.8389 15.609 12.2239C16.4692 12.0255 17.1172 11.4596 17.2901 10.2908ZM14.2818 14.5091C13.875 16.1441 11.1221 15.2603 10.2296 15.0386L10.9526 12.1403C11.8451 12.363 14.7071 12.804 14.2818 14.5091ZM14.6891 10.2671C14.3178 11.7544 12.0266 10.9988 11.2833 10.8135L11.9388 8.18477C12.6821 8.37002 15.0757 8.71577 14.6891 10.2671Z" fill="white"/>
</g>
<defs>
<clipPath id="clip0_865_4423">
<rect width="24" height="24" fill="white"/>
</clipPath>
</defs>
</svg>
