<svg width="56" height="56" viewBox="0 0 56 56" fill="none" xmlns="http://www.w3.org/2000/svg">
<g opacity="0.4" clip-path="url(#clip0_1029_23848)">
<path d="M55.156 34.7739C51.4163 49.774 36.2236 58.9029 21.2218 55.1623C6.22603 51.4225 -2.90285 36.229 0.838653 21.2298C4.57665 6.2279 19.7693 -2.90185 34.7668 0.837896C49.7678 4.57765 58.8958 19.7729 55.156 34.7739Z" fill="#F7931A"/>
<path d="M40.3432 24.0115C40.9006 20.2857 38.0638 18.2828 34.185 16.9467L35.4432 11.8997L32.3711 11.1341L31.1461 16.0481C30.3385 15.8468 29.509 15.657 28.6847 15.4688L29.9185 10.5225L26.8481 9.75684L25.589 14.8021C24.9205 14.6498 24.2642 14.4993 23.6272 14.341L23.6307 14.3252L19.394 13.2673L18.5767 16.5486C18.5767 16.5486 20.8561 17.071 20.808 17.1033C22.0522 17.414 22.2771 18.2373 22.2395 18.8901L20.8062 24.6397C20.892 24.6616 21.0031 24.6931 21.1256 24.7421C21.0232 24.7167 20.9138 24.6887 20.801 24.6616L18.792 32.716C18.6397 33.094 18.2539 33.661 17.3841 33.4457C17.4147 33.4903 15.1511 32.8883 15.1511 32.8883L13.626 36.405L17.6239 37.4016C18.3676 37.588 19.0965 37.7831 19.814 37.9668L18.5426 43.0716L21.6112 43.8372L22.8704 38.7867C23.7086 39.0142 24.5224 39.2242 25.3186 39.422L24.0639 44.4488L27.136 45.2145L28.4074 40.1193C33.646 41.1107 37.5852 40.7108 39.2434 35.9727C40.5795 32.1577 39.1768 29.9571 36.4206 28.5221C38.4278 28.0592 39.9398 26.7388 40.3432 24.0115ZM33.324 33.8543C32.3746 37.6693 25.9512 35.607 23.8687 35.0898L25.5557 28.327C27.6382 28.8467 34.3162 29.8757 33.324 33.8543ZM34.2742 23.9563C33.408 27.4266 28.0617 25.6635 26.3275 25.2312L27.857 19.0975C29.5912 19.5297 35.1763 20.3365 34.2742 23.9563Z" fill="white"/>
</g>
<rect x="56" y="56" width="56" height="56" transform="rotate(-180 56 56)" fill="url(#paint0_linear_1029_23848)"/>
<defs>
<linearGradient id="paint0_linear_1029_23848" x1="84" y1="56" x2="84" y2="112" gradientUnits="userSpaceOnUse">
<stop stop-color="white"/>
<stop offset="1" stop-color="white" stop-opacity="0"/>
</linearGradient>
<clipPath id="clip0_1029_23848">
<rect width="56" height="56" fill="white"/>
</clipPath>
</defs>
</svg>
