<svg width="252" height="108" viewBox="0 0 252 108" fill="none" xmlns="http://www.w3.org/2000/svg">
<ellipse opacity="0.25" cx="126" cy="69" rx="44" ry="5" fill="#E73A3A"/>
<path d="M156 53.3333L139.323 70H99.3267C98.4467 70.0018 97.6021 69.6541 96.9783 69.0335C96.3545 68.4128 96.0026 67.5699 96 66.69V13.31C96 11.4833 97.4833 10 99.31 10H152.69C154.517 10 156 11.49 156 13.33V53.3333Z" fill="url(#paint0_linear_711_17238)"/>
<path d="M117 48C124.077 40.9706 128.044 37.0294 135.121 30" stroke="url(#paint1_linear_711_17238)" stroke-width="6"/>
<path d="M117.061 29.9395C124.09 37.0162 128.031 40.9839 135.061 48.0607" stroke="url(#paint2_linear_711_17238)" stroke-width="6"/>
<path d="M0.437461 104L4.36746 92.825H6.55746L10.4875 104H8.59746L7.74246 101.495H3.19746L2.32746 104H0.437461ZM3.70746 99.92H7.20246L5.22246 94.07H5.71746L3.70746 99.92ZM11.6482 104V95.885H13.2682V97.52L13.1182 97.28C13.2982 96.75 13.5882 96.37 13.9882 96.14C14.3882 95.9 14.8682 95.78 15.4282 95.78H15.9232V97.325H15.2182C14.6582 97.325 14.2032 97.5 13.8532 97.85C13.5132 98.19 13.3432 98.68 13.3432 99.32V104H11.6482ZM20.8928 104.18C20.0828 104.18 19.3628 103.995 18.7328 103.625C18.1128 103.245 17.6278 102.735 17.2778 102.095C16.9278 101.445 16.7528 100.72 16.7528 99.92C16.7528 99.1 16.9278 98.375 17.2778 97.745C17.6378 97.115 18.1178 96.62 18.7178 96.26C19.3178 95.89 19.9978 95.705 20.7578 95.705C21.3678 95.705 21.9128 95.81 22.3928 96.02C22.8728 96.23 23.2778 96.52 23.6078 96.89C23.9378 97.25 24.1878 97.665 24.3578 98.135C24.5378 98.605 24.6278 99.105 24.6278 99.635C24.6278 99.765 24.6228 99.9 24.6128 100.04C24.6028 100.18 24.5828 100.31 24.5528 100.43H18.0878V99.08H23.5928L22.7828 99.695C22.8828 99.205 22.8478 98.77 22.6778 98.39C22.5178 98 22.2678 97.695 21.9278 97.475C21.5978 97.245 21.2078 97.13 20.7578 97.13C20.3078 97.13 19.9078 97.245 19.5578 97.475C19.2078 97.695 18.9378 98.015 18.7478 98.435C18.5578 98.845 18.4828 99.345 18.5228 99.935C18.4728 100.485 18.5478 100.965 18.7478 101.375C18.9578 101.785 19.2478 102.105 19.6178 102.335C19.9978 102.565 20.4278 102.68 20.9078 102.68C21.3978 102.68 21.8128 102.57 22.1528 102.35C22.5028 102.13 22.7778 101.845 22.9778 101.495L24.3578 102.17C24.1978 102.55 23.9478 102.895 23.6078 103.205C23.2778 103.505 22.8778 103.745 22.4078 103.925C21.9478 104.095 21.4428 104.18 20.8928 104.18ZM29.6241 107.315C29.4241 107.315 29.2241 107.295 29.0241 107.255C28.8341 107.225 28.6591 107.175 28.4991 107.105V105.65C28.6191 105.68 28.7641 105.705 28.9341 105.725C29.1041 105.755 29.2691 105.77 29.4291 105.77C29.8991 105.77 30.2441 105.665 30.4641 105.455C30.6941 105.255 30.8991 104.94 31.0791 104.51L31.6191 103.28L31.5891 104.705L28.0791 95.885H29.8941L32.4891 102.65H31.8741L34.4541 95.885H36.2841L32.6991 104.885C32.5091 105.365 32.2691 105.785 31.9791 106.145C31.6991 106.515 31.3641 106.8 30.9741 107C30.5941 107.21 30.1441 107.315 29.6241 107.315ZM41.2126 104.18C40.4326 104.18 39.7176 103.995 39.0676 103.625C38.4276 103.255 37.9176 102.75 37.5376 102.11C37.1576 101.47 36.9676 100.745 36.9676 99.935C36.9676 99.115 37.1576 98.39 37.5376 97.76C37.9176 97.12 38.4276 96.62 39.0676 96.26C39.7076 95.89 40.4226 95.705 41.2126 95.705C42.0126 95.705 42.7276 95.89 43.3576 96.26C43.9976 96.62 44.5026 97.12 44.8726 97.76C45.2526 98.39 45.4426 99.115 45.4426 99.935C45.4426 100.755 45.2526 101.485 44.8726 102.125C44.4926 102.765 43.9826 103.27 43.3426 103.64C42.7026 104 41.9926 104.18 41.2126 104.18ZM41.2126 102.605C41.6926 102.605 42.1176 102.49 42.4876 102.26C42.8576 102.03 43.1476 101.715 43.3576 101.315C43.5776 100.905 43.6876 100.445 43.6876 99.935C43.6876 99.425 43.5776 98.97 43.3576 98.57C43.1476 98.17 42.8576 97.855 42.4876 97.625C42.1176 97.395 41.6926 97.28 41.2126 97.28C40.7426 97.28 40.3176 97.395 39.9376 97.625C39.5676 97.855 39.2726 98.17 39.0526 98.57C38.8426 98.97 38.7376 99.425 38.7376 99.935C38.7376 100.445 38.8426 100.905 39.0526 101.315C39.2726 101.715 39.5676 102.03 39.9376 102.26C40.3176 102.49 40.7426 102.605 41.2126 102.605ZM49.9924 104.18C49.3824 104.18 48.8474 104.045 48.3874 103.775C47.9274 103.495 47.5674 103.11 47.3074 102.62C47.0574 102.12 46.9324 101.545 46.9324 100.895V95.885H48.6274V100.745C48.6274 101.115 48.7024 101.44 48.8524 101.72C49.0024 102 49.2124 102.22 49.4824 102.38C49.7524 102.53 50.0624 102.605 50.4124 102.605C50.7724 102.605 51.0874 102.525 51.3574 102.365C51.6274 102.205 51.8374 101.98 51.9874 101.69C52.1474 101.4 52.2274 101.06 52.2274 100.67V95.885H53.9074V104H52.3024V102.41L52.4824 102.62C52.2924 103.12 51.9774 103.505 51.5374 103.775C51.0974 104.045 50.5824 104.18 49.9924 104.18ZM61.5086 104.18C60.6786 104.18 59.9486 103.975 59.3186 103.565C58.6986 103.155 58.2636 102.605 58.0136 101.915L59.3186 101.3C59.5386 101.76 59.8386 102.125 60.2186 102.395C60.6086 102.665 61.0386 102.8 61.5086 102.8C61.9086 102.8 62.2336 102.71 62.4836 102.53C62.7336 102.35 62.8586 102.105 62.8586 101.795C62.8586 101.595 62.8036 101.435 62.6936 101.315C62.5836 101.185 62.4436 101.08 62.2736 101C62.1136 100.92 61.9486 100.86 61.7786 100.82L60.5036 100.46C59.8036 100.26 59.2786 99.96 58.9286 99.56C58.5886 99.15 58.4186 98.675 58.4186 98.135C58.4186 97.645 58.5436 97.22 58.7936 96.86C59.0436 96.49 59.3886 96.205 59.8286 96.005C60.2686 95.805 60.7636 95.705 61.3136 95.705C62.0536 95.705 62.7136 95.89 63.2936 96.26C63.8736 96.62 64.2836 97.125 64.5236 97.775L63.2186 98.39C63.0586 98 62.8036 97.69 62.4536 97.46C62.1136 97.23 61.7286 97.115 61.2986 97.115C60.9286 97.115 60.6336 97.205 60.4136 97.385C60.1936 97.555 60.0836 97.78 60.0836 98.06C60.0836 98.25 60.1336 98.41 60.2336 98.54C60.3336 98.66 60.4636 98.76 60.6236 98.84C60.7836 98.91 60.9486 98.97 61.1186 99.02L62.4386 99.41C63.1086 99.6 63.6236 99.9 63.9836 100.31C64.3436 100.71 64.5236 101.19 64.5236 101.75C64.5236 102.23 64.3936 102.655 64.1336 103.025C63.8836 103.385 63.5336 103.67 63.0836 103.88C62.6336 104.08 62.1086 104.18 61.5086 104.18ZM69.0793 104.18C68.4693 104.18 67.9343 104.045 67.4743 103.775C67.0143 103.495 66.6543 103.11 66.3943 102.62C66.1443 102.12 66.0193 101.545 66.0193 100.895V95.885H67.7143V100.745C67.7143 101.115 67.7893 101.44 67.9393 101.72C68.0893 102 68.2993 102.22 68.5693 102.38C68.8393 102.53 69.1493 102.605 69.4993 102.605C69.8593 102.605 70.1743 102.525 70.4443 102.365C70.7143 102.205 70.9243 101.98 71.0743 101.69C71.2343 101.4 71.3143 101.06 71.3143 100.67V95.885H72.9943V104H71.3893V102.41L71.5693 102.62C71.3793 103.12 71.0643 103.505 70.6243 103.775C70.1843 104.045 69.6693 104.18 69.0793 104.18ZM74.9734 104V95.885H76.5934V97.52L76.4434 97.28C76.6234 96.75 76.9134 96.37 77.3134 96.14C77.7134 95.9 78.1934 95.78 78.7534 95.78H79.2484V97.325H78.5434C77.9834 97.325 77.5284 97.5 77.1784 97.85C76.8384 98.19 76.6684 98.68 76.6684 99.32V104H74.9734ZM84.218 104.18C83.408 104.18 82.688 103.995 82.058 103.625C81.438 103.245 80.953 102.735 80.603 102.095C80.253 101.445 80.078 100.72 80.078 99.92C80.078 99.1 80.253 98.375 80.603 97.745C80.963 97.115 81.443 96.62 82.043 96.26C82.643 95.89 83.323 95.705 84.083 95.705C84.693 95.705 85.238 95.81 85.718 96.02C86.198 96.23 86.603 96.52 86.933 96.89C87.263 97.25 87.513 97.665 87.683 98.135C87.863 98.605 87.953 99.105 87.953 99.635C87.953 99.765 87.948 99.9 87.938 100.04C87.928 100.18 87.908 100.31 87.878 100.43H81.413V99.08H86.918L86.108 99.695C86.208 99.205 86.173 98.77 86.003 98.39C85.843 98 85.593 97.695 85.253 97.475C84.923 97.245 84.533 97.13 84.083 97.13C83.633 97.13 83.233 97.245 82.883 97.475C82.533 97.695 82.263 98.015 82.073 98.435C81.883 98.845 81.808 99.345 81.848 99.935C81.798 100.485 81.873 100.965 82.073 101.375C82.283 101.785 82.573 102.105 82.943 102.335C83.323 102.565 83.753 102.68 84.233 102.68C84.723 102.68 85.138 102.57 85.478 102.35C85.828 102.13 86.103 101.845 86.303 101.495L87.683 102.17C87.523 102.55 87.273 102.895 86.933 103.205C86.603 103.505 86.203 103.745 85.733 103.925C85.273 104.095 84.768 104.18 84.218 104.18ZM95.7393 104.09C94.8893 104.09 94.2293 103.85 93.7593 103.37C93.2893 102.89 93.0543 102.215 93.0543 101.345V97.415H91.6293V95.885H91.8543C92.2343 95.885 92.5293 95.775 92.7393 95.555C92.9493 95.335 93.0543 95.035 93.0543 94.655V94.025H94.7493V95.885H96.5943V97.415H94.7493V101.27C94.7493 101.55 94.7943 101.79 94.8843 101.99C94.9743 102.18 95.1193 102.33 95.3193 102.44C95.5193 102.54 95.7793 102.59 96.0993 102.59C96.1793 102.59 96.2693 102.585 96.3693 102.575C96.4693 102.565 96.5643 102.555 96.6543 102.545V104C96.5143 104.02 96.3593 104.04 96.1893 104.06C96.0193 104.08 95.8693 104.09 95.7393 104.09ZM102.077 104.18C101.297 104.18 100.582 103.995 99.9319 103.625C99.2919 103.255 98.7819 102.75 98.4019 102.11C98.0219 101.47 97.8319 100.745 97.8319 99.935C97.8319 99.115 98.0219 98.39 98.4019 97.76C98.7819 97.12 99.2919 96.62 99.9319 96.26C100.572 95.89 101.287 95.705 102.077 95.705C102.877 95.705 103.592 95.89 104.222 96.26C104.862 96.62 105.367 97.12 105.737 97.76C106.117 98.39 106.307 99.115 106.307 99.935C106.307 100.755 106.117 101.485 105.737 102.125C105.357 102.765 104.847 103.27 104.207 103.64C103.567 104 102.857 104.18 102.077 104.18ZM102.077 102.605C102.557 102.605 102.982 102.49 103.352 102.26C103.722 102.03 104.012 101.715 104.222 101.315C104.442 100.905 104.552 100.445 104.552 99.935C104.552 99.425 104.442 98.97 104.222 98.57C104.012 98.17 103.722 97.855 103.352 97.625C102.982 97.395 102.557 97.28 102.077 97.28C101.607 97.28 101.182 97.395 100.802 97.625C100.432 97.855 100.137 98.17 99.9169 98.57C99.7069 98.97 99.6019 99.425 99.6019 99.935C99.6019 100.445 99.7069 100.905 99.9169 101.315C100.137 101.715 100.432 102.03 100.802 102.26C101.182 102.49 101.607 102.605 102.077 102.605ZM114.439 104.18C113.629 104.18 112.909 103.995 112.279 103.625C111.659 103.245 111.164 102.735 110.794 102.095C110.434 101.455 110.254 100.73 110.254 99.92C110.254 99.12 110.434 98.4 110.794 97.76C111.154 97.12 111.649 96.62 112.279 96.26C112.909 95.89 113.629 95.705 114.439 95.705C114.989 95.705 115.504 95.805 115.984 96.005C116.464 96.195 116.879 96.46 117.229 96.8C117.589 97.14 117.854 97.535 118.024 97.985L116.539 98.675C116.369 98.255 116.094 97.92 115.714 97.67C115.344 97.41 114.919 97.28 114.439 97.28C113.979 97.28 113.564 97.395 113.194 97.625C112.834 97.845 112.549 98.16 112.339 98.57C112.129 98.97 112.024 99.425 112.024 99.935C112.024 100.445 112.129 100.905 112.339 101.315C112.549 101.715 112.834 102.03 113.194 102.26C113.564 102.49 113.979 102.605 114.439 102.605C114.929 102.605 115.354 102.48 115.714 102.23C116.084 101.97 116.359 101.625 116.539 101.195L118.024 101.9C117.864 102.33 117.604 102.72 117.244 103.07C116.894 103.41 116.479 103.68 115.999 103.88C115.519 104.08 114.999 104.18 114.439 104.18ZM122.037 104.18C121.487 104.18 121.002 104.085 120.582 103.895C120.172 103.695 119.852 103.425 119.622 103.085C119.392 102.735 119.277 102.325 119.277 101.855C119.277 101.415 119.372 101.02 119.562 100.67C119.762 100.32 120.067 100.025 120.477 99.785C120.887 99.545 121.402 99.375 122.022 99.275L124.842 98.81V100.145L122.352 100.58C121.902 100.66 121.572 100.805 121.362 101.015C121.152 101.215 121.047 101.475 121.047 101.795C121.047 102.105 121.162 102.36 121.392 102.56C121.632 102.75 121.937 102.845 122.307 102.845C122.767 102.845 123.167 102.745 123.507 102.545C123.857 102.345 124.127 102.08 124.317 101.75C124.507 101.41 124.602 101.035 124.602 100.625V98.54C124.602 98.14 124.452 97.815 124.152 97.565C123.862 97.305 123.472 97.175 122.982 97.175C122.532 97.175 122.137 97.295 121.797 97.535C121.467 97.765 121.222 98.065 121.062 98.435L119.652 97.73C119.802 97.33 120.047 96.98 120.387 96.68C120.727 96.37 121.122 96.13 121.572 95.96C122.032 95.79 122.517 95.705 123.027 95.705C123.667 95.705 124.232 95.825 124.722 96.065C125.222 96.305 125.607 96.64 125.877 97.07C126.157 97.49 126.297 97.98 126.297 98.54V104H124.677V102.53L125.022 102.575C124.832 102.905 124.587 103.19 124.287 103.43C123.997 103.67 123.662 103.855 123.282 103.985C122.912 104.115 122.497 104.18 122.037 104.18ZM128.279 104V95.885H129.899V97.475L129.704 97.265C129.904 96.755 130.224 96.37 130.664 96.11C131.104 95.84 131.614 95.705 132.194 95.705C132.794 95.705 133.324 95.835 133.784 96.095C134.244 96.355 134.604 96.715 134.864 97.175C135.124 97.635 135.254 98.165 135.254 98.765V104H133.574V99.215C133.574 98.805 133.499 98.46 133.349 98.18C133.199 97.89 132.984 97.67 132.704 97.52C132.434 97.36 132.124 97.28 131.774 97.28C131.424 97.28 131.109 97.36 130.829 97.52C130.559 97.67 130.349 97.89 130.199 98.18C130.049 98.47 129.974 98.815 129.974 99.215V104H128.279ZM140.923 104.18C140.113 104.18 139.393 103.995 138.763 103.625C138.143 103.245 137.648 102.735 137.278 102.095C136.918 101.455 136.738 100.73 136.738 99.92C136.738 99.12 136.918 98.4 137.278 97.76C137.638 97.12 138.133 96.62 138.763 96.26C139.393 95.89 140.113 95.705 140.923 95.705C141.473 95.705 141.988 95.805 142.468 96.005C142.948 96.195 143.363 96.46 143.713 96.8C144.073 97.14 144.338 97.535 144.508 97.985L143.023 98.675C142.853 98.255 142.578 97.92 142.198 97.67C141.828 97.41 141.403 97.28 140.923 97.28C140.463 97.28 140.048 97.395 139.678 97.625C139.318 97.845 139.033 98.16 138.823 98.57C138.613 98.97 138.508 99.425 138.508 99.935C138.508 100.445 138.613 100.905 138.823 101.315C139.033 101.715 139.318 102.03 139.678 102.26C140.048 102.49 140.463 102.605 140.923 102.605C141.413 102.605 141.838 102.48 142.198 102.23C142.568 101.97 142.843 101.625 143.023 101.195L144.508 101.9C144.348 102.33 144.088 102.72 143.728 103.07C143.378 103.41 142.963 103.68 142.483 103.88C142.003 104.08 141.483 104.18 140.923 104.18ZM149.975 104.18C149.165 104.18 148.445 103.995 147.815 103.625C147.195 103.245 146.71 102.735 146.36 102.095C146.01 101.445 145.835 100.72 145.835 99.92C145.835 99.1 146.01 98.375 146.36 97.745C146.72 97.115 147.2 96.62 147.8 96.26C148.4 95.89 149.08 95.705 149.84 95.705C150.45 95.705 150.995 95.81 151.475 96.02C151.955 96.23 152.36 96.52 152.69 96.89C153.02 97.25 153.27 97.665 153.44 98.135C153.62 98.605 153.71 99.105 153.71 99.635C153.71 99.765 153.705 99.9 153.695 100.04C153.685 100.18 153.665 100.31 153.635 100.43H147.17V99.08H152.675L151.865 99.695C151.965 99.205 151.93 98.77 151.76 98.39C151.6 98 151.35 97.695 151.01 97.475C150.68 97.245 150.29 97.13 149.84 97.13C149.39 97.13 148.99 97.245 148.64 97.475C148.29 97.695 148.02 98.015 147.83 98.435C147.64 98.845 147.565 99.345 147.605 99.935C147.555 100.485 147.63 100.965 147.83 101.375C148.04 101.785 148.33 102.105 148.7 102.335C149.08 102.565 149.51 102.68 149.99 102.68C150.48 102.68 150.895 102.57 151.235 102.35C151.585 102.13 151.86 101.845 152.06 101.495L153.44 102.17C153.28 102.55 153.03 102.895 152.69 103.205C152.36 103.505 151.96 103.745 151.49 103.925C151.03 104.095 150.525 104.18 149.975 104.18ZM155.364 104V92.645H157.059V104H155.364ZM165.173 104.09C164.323 104.09 163.663 103.85 163.193 103.37C162.723 102.89 162.488 102.215 162.488 101.345V97.415H161.063V95.885H161.288C161.668 95.885 161.963 95.775 162.173 95.555C162.383 95.335 162.488 95.035 162.488 94.655V94.025H164.183V95.885H166.028V97.415H164.183V101.27C164.183 101.55 164.228 101.79 164.318 101.99C164.408 102.18 164.553 102.33 164.753 102.44C164.953 102.54 165.213 102.59 165.533 102.59C165.613 102.59 165.703 102.585 165.803 102.575C165.903 102.565 165.998 102.555 166.088 102.545V104C165.948 104.02 165.793 104.04 165.623 104.06C165.453 104.08 165.303 104.09 165.173 104.09ZM167.742 104V92.645H169.437V97.475L169.167 97.265C169.367 96.755 169.687 96.37 170.127 96.11C170.567 95.84 171.077 95.705 171.657 95.705C172.257 95.705 172.787 95.835 173.247 96.095C173.707 96.355 174.067 96.715 174.327 97.175C174.587 97.635 174.717 98.16 174.717 98.75V104H173.037V99.215C173.037 98.805 172.957 98.46 172.797 98.18C172.647 97.89 172.437 97.67 172.167 97.52C171.897 97.36 171.587 97.28 171.237 97.28C170.897 97.28 170.587 97.36 170.307 97.52C170.037 97.67 169.822 97.89 169.662 98.18C169.512 98.47 169.437 98.815 169.437 99.215V104H167.742ZM176.531 104V95.885H178.226V104H176.531ZM176.531 94.775V92.825H178.226V94.775H176.531ZM183.208 104.18C182.378 104.18 181.648 103.975 181.018 103.565C180.398 103.155 179.963 102.605 179.713 101.915L181.018 101.3C181.238 101.76 181.538 102.125 181.918 102.395C182.308 102.665 182.738 102.8 183.208 102.8C183.608 102.8 183.933 102.71 184.183 102.53C184.433 102.35 184.558 102.105 184.558 101.795C184.558 101.595 184.503 101.435 184.393 101.315C184.283 101.185 184.143 101.08 183.973 101C183.813 100.92 183.648 100.86 183.478 100.82L182.203 100.46C181.503 100.26 180.978 99.96 180.628 99.56C180.288 99.15 180.118 98.675 180.118 98.135C180.118 97.645 180.243 97.22 180.493 96.86C180.743 96.49 181.088 96.205 181.528 96.005C181.968 95.805 182.463 95.705 183.013 95.705C183.753 95.705 184.413 95.89 184.993 96.26C185.573 96.62 185.983 97.125 186.223 97.775L184.918 98.39C184.758 98 184.503 97.69 184.153 97.46C183.813 97.23 183.428 97.115 182.998 97.115C182.628 97.115 182.333 97.205 182.113 97.385C181.893 97.555 181.783 97.78 181.783 98.06C181.783 98.25 181.833 98.41 181.933 98.54C182.033 98.66 182.163 98.76 182.323 98.84C182.483 98.91 182.648 98.97 182.818 99.02L184.138 99.41C184.808 99.6 185.323 99.9 185.683 100.31C186.043 100.71 186.223 101.19 186.223 101.75C186.223 102.23 186.093 102.655 185.833 103.025C185.583 103.385 185.233 103.67 184.783 103.88C184.333 104.08 183.808 104.18 183.208 104.18ZM194.316 104.18C193.506 104.18 192.786 103.995 192.156 103.625C191.536 103.245 191.051 102.735 190.701 102.095C190.351 101.445 190.176 100.72 190.176 99.92C190.176 99.1 190.351 98.375 190.701 97.745C191.061 97.115 191.541 96.62 192.141 96.26C192.741 95.89 193.421 95.705 194.181 95.705C194.791 95.705 195.336 95.81 195.816 96.02C196.296 96.23 196.701 96.52 197.031 96.89C197.361 97.25 197.611 97.665 197.781 98.135C197.961 98.605 198.051 99.105 198.051 99.635C198.051 99.765 198.046 99.9 198.036 100.04C198.026 100.18 198.006 100.31 197.976 100.43H191.511V99.08H197.016L196.206 99.695C196.306 99.205 196.271 98.77 196.101 98.39C195.941 98 195.691 97.695 195.351 97.475C195.021 97.245 194.631 97.13 194.181 97.13C193.731 97.13 193.331 97.245 192.981 97.475C192.631 97.695 192.361 98.015 192.171 98.435C191.981 98.845 191.906 99.345 191.946 99.935C191.896 100.485 191.971 100.965 192.171 101.375C192.381 101.785 192.671 102.105 193.041 102.335C193.421 102.565 193.851 102.68 194.331 102.68C194.821 102.68 195.236 102.57 195.576 102.35C195.926 102.13 196.201 101.845 196.401 101.495L197.781 102.17C197.621 102.55 197.371 102.895 197.031 103.205C196.701 103.505 196.301 103.745 195.831 103.925C195.371 104.095 194.866 104.18 194.316 104.18ZM202.705 104.18C201.875 104.18 201.145 103.975 200.515 103.565C199.895 103.155 199.46 102.605 199.21 101.915L200.515 101.3C200.735 101.76 201.035 102.125 201.415 102.395C201.805 102.665 202.235 102.8 202.705 102.8C203.105 102.8 203.43 102.71 203.68 102.53C203.93 102.35 204.055 102.105 204.055 101.795C204.055 101.595 204 101.435 203.89 101.315C203.78 101.185 203.64 101.08 203.47 101C203.31 100.92 203.145 100.86 202.975 100.82L201.7 100.46C201 100.26 200.475 99.96 200.125 99.56C199.785 99.15 199.615 98.675 199.615 98.135C199.615 97.645 199.74 97.22 199.99 96.86C200.24 96.49 200.585 96.205 201.025 96.005C201.465 95.805 201.96 95.705 202.51 95.705C203.25 95.705 203.91 95.89 204.49 96.26C205.07 96.62 205.48 97.125 205.72 97.775L204.415 98.39C204.255 98 204 97.69 203.65 97.46C203.31 97.23 202.925 97.115 202.495 97.115C202.125 97.115 201.83 97.205 201.61 97.385C201.39 97.555 201.28 97.78 201.28 98.06C201.28 98.25 201.33 98.41 201.43 98.54C201.53 98.66 201.66 98.76 201.82 98.84C201.98 98.91 202.145 98.97 202.315 99.02L203.635 99.41C204.305 99.6 204.82 99.9 205.18 100.31C205.54 100.71 205.72 101.19 205.72 101.75C205.72 102.23 205.59 102.655 205.33 103.025C205.08 103.385 204.73 103.67 204.28 103.88C203.83 104.08 203.305 104.18 202.705 104.18ZM211.236 104.18C210.426 104.18 209.706 103.995 209.076 103.625C208.456 103.245 207.961 102.735 207.591 102.095C207.231 101.455 207.051 100.73 207.051 99.92C207.051 99.12 207.231 98.4 207.591 97.76C207.951 97.12 208.446 96.62 209.076 96.26C209.706 95.89 210.426 95.705 211.236 95.705C211.786 95.705 212.301 95.805 212.781 96.005C213.261 96.195 213.676 96.46 214.026 96.8C214.386 97.14 214.651 97.535 214.821 97.985L213.336 98.675C213.166 98.255 212.891 97.92 212.511 97.67C212.141 97.41 211.716 97.28 211.236 97.28C210.776 97.28 210.361 97.395 209.991 97.625C209.631 97.845 209.346 98.16 209.136 98.57C208.926 98.97 208.821 99.425 208.821 99.935C208.821 100.445 208.926 100.905 209.136 101.315C209.346 101.715 209.631 102.03 209.991 102.26C210.361 102.49 210.776 102.605 211.236 102.605C211.726 102.605 212.151 102.48 212.511 102.23C212.881 101.97 213.156 101.625 213.336 101.195L214.821 101.9C214.661 102.33 214.401 102.72 214.041 103.07C213.691 103.41 213.276 103.68 212.796 103.88C212.316 104.08 211.796 104.18 211.236 104.18ZM216.477 104V95.885H218.097V97.52L217.947 97.28C218.127 96.75 218.417 96.37 218.817 96.14C219.217 95.9 219.697 95.78 220.257 95.78H220.752V97.325H220.047C219.487 97.325 219.032 97.5 218.682 97.85C218.342 98.19 218.172 98.68 218.172 99.32V104H216.477ZM225.827 104.18C225.047 104.18 224.332 103.995 223.682 103.625C223.042 103.255 222.532 102.75 222.152 102.11C221.772 101.47 221.582 100.745 221.582 99.935C221.582 99.115 221.772 98.39 222.152 97.76C222.532 97.12 223.042 96.62 223.682 96.26C224.322 95.89 225.037 95.705 225.827 95.705C226.627 95.705 227.342 95.89 227.972 96.26C228.612 96.62 229.117 97.12 229.487 97.76C229.867 98.39 230.057 99.115 230.057 99.935C230.057 100.755 229.867 101.485 229.487 102.125C229.107 102.765 228.597 103.27 227.957 103.64C227.317 104 226.607 104.18 225.827 104.18ZM225.827 102.605C226.307 102.605 226.732 102.49 227.102 102.26C227.472 102.03 227.762 101.715 227.972 101.315C228.192 100.905 228.302 100.445 228.302 99.935C228.302 99.425 228.192 98.97 227.972 98.57C227.762 98.17 227.472 97.855 227.102 97.625C226.732 97.395 226.307 97.28 225.827 97.28C225.357 97.28 224.932 97.395 224.552 97.625C224.182 97.855 223.887 98.17 223.667 98.57C223.457 98.97 223.352 99.425 223.352 99.935C223.352 100.445 223.457 100.905 223.667 101.315C223.887 101.715 224.182 102.03 224.552 102.26C224.932 102.49 225.357 102.605 225.827 102.605ZM233.53 104L230.74 95.885H232.54L234.67 102.35H234.04L236.215 95.885H237.76L239.92 102.35H239.29L241.435 95.885H243.235L240.43 104H238.9L236.71 97.385H237.265L235.075 104H233.53ZM246.347 100.67V100.415C246.347 99.975 246.417 99.585 246.557 99.245C246.707 98.905 246.892 98.6 247.112 98.33C247.342 98.05 247.577 97.795 247.817 97.565C248.157 97.245 248.457 96.935 248.717 96.635C248.987 96.335 249.122 95.985 249.122 95.585C249.122 95.335 249.062 95.11 248.942 94.91C248.822 94.7 248.642 94.535 248.402 94.415C248.172 94.285 247.887 94.22 247.547 94.22C247.077 94.22 246.672 94.365 246.332 94.655C246.002 94.935 245.792 95.315 245.702 95.795L244.127 95.42C244.217 94.87 244.417 94.39 244.727 93.98C245.047 93.56 245.447 93.235 245.927 93.005C246.417 92.765 246.967 92.645 247.577 92.645C248.267 92.645 248.857 92.785 249.347 93.065C249.847 93.335 250.227 93.69 250.487 94.13C250.747 94.57 250.877 95.045 250.877 95.555C250.877 95.965 250.792 96.335 250.622 96.665C250.462 96.985 250.252 97.28 249.992 97.55C249.742 97.82 249.482 98.085 249.212 98.345C248.892 98.655 248.607 98.98 248.357 99.32C248.117 99.65 247.997 100.04 247.997 100.49V100.67H246.347ZM246.347 104V102.05H248.072V104H246.347Z" fill="#404D58"/>
<defs>
<linearGradient id="paint0_linear_711_17238" x1="102.822" y1="9.99999" x2="152.668" y2="11.7907" gradientUnits="userSpaceOnUse">
<stop stop-color="#EA5A5A"/>
<stop offset="1" stop-color="#FB6C6C"/>
</linearGradient>
<linearGradient id="paint1_linear_711_17238" x1="126.557" y1="-51" x2="180.226" y2="277.8" gradientUnits="userSpaceOnUse">
<stop stop-color="white"/>
<stop offset="1" stop-color="white" stop-opacity="0"/>
</linearGradient>
<linearGradient id="paint2_linear_711_17238" x1="216.061" y1="39.4968" x2="-112.739" y2="93.1653" gradientUnits="userSpaceOnUse">
<stop stop-color="white"/>
<stop offset="1" stop-color="white" stop-opacity="0"/>
</linearGradient>
</defs>
</svg>
