<svg width="22" height="13" viewBox="0 0 22 13" fill="none" xmlns="http://www.w3.org/2000/svg">
<path d="M11.917 7.99963C11.6623 9.4797 10.8619 10.8105 9.67392 11.7293C8.48593 12.6481 6.99666 13.0881 5.50009 12.9625C4.00352 12.837 2.60841 12.1549 1.59016 11.0509C0.57191 9.94701 0.00452288 8.50145 2.5002e-06 6.99963C-0.00137098 5.49424 0.563193 4.04333 1.58168 2.93478C2.60017 1.82623 3.99816 1.14105 5.49828 1.01517C6.9984 0.889285 8.49103 1.33191 9.68002 2.25522C10.869 3.17853 11.6675 4.51506 11.917 5.99963H22V7.99963H20V11.9996H18V7.99963H16V11.9996H14V7.99963H11.917ZM6 10.9996C7.06087 10.9996 8.07828 10.5782 8.82843 9.82805C9.57858 9.07791 10 8.06049 10 6.99963C10 5.93876 9.57858 4.92134 8.82843 4.1712C8.07828 3.42105 7.06087 2.99963 6 2.99963C4.93914 2.99963 3.92172 3.42105 3.17158 4.1712C2.42143 4.92134 2 5.93876 2 6.99963C2 8.06049 2.42143 9.07791 3.17158 9.82805C3.92172 10.5782 4.93914 10.9996 6 10.9996Z" fill="#404D58"/>
</svg>
