<svg width="14" height="14" viewBox="0 0 14 14" fill="none" xmlns="http://www.w3.org/2000/svg">
<path d="M6.74967 13.6663C3.06767 13.6663 0.0830078 10.6817 0.0830078 6.99967C0.0830078 3.31767 3.06767 0.333008 6.74967 0.333008C10.4317 0.333008 13.4163 3.31767 13.4163 6.99967C13.4163 10.6817 10.4317 13.6663 6.74967 13.6663ZM6.74967 12.333C8.16416 12.333 9.52072 11.7711 10.5209 10.7709C11.5211 9.77072 12.083 8.41416 12.083 6.99967C12.083 5.58519 11.5211 4.22863 10.5209 3.22844C9.52072 2.22824 8.16416 1.66634 6.74967 1.66634C5.33519 1.66634 3.97863 2.22824 2.97844 3.22844C1.97824 4.22863 1.41634 5.58519 1.41634 6.99967C1.41634 8.41416 1.97824 9.77072 2.97844 10.7709C3.97863 11.7711 5.33519 12.333 6.74967 12.333V12.333Z" fill="#404D58"/>
</svg>
