<svg width="18" height="18" viewBox="0 0 18 18" fill="none" xmlns="http://www.w3.org/2000/svg">
<path d="M9.00033 17.3337C4.39783 17.3337 0.666992 13.6028 0.666992 9.00033C0.666992 4.39783 4.39783 0.666992 9.00033 0.666992C13.6028 0.666992 17.3337 4.39783 17.3337 9.00033C17.3337 13.6028 13.6028 17.3337 9.00033 17.3337ZM9.00033 15.667C10.7684 15.667 12.4641 14.9646 13.7144 13.7144C14.9646 12.4641 15.667 10.7684 15.667 9.00033C15.667 7.23222 14.9646 5.53652 13.7144 4.28628C12.4641 3.03604 10.7684 2.33366 9.00033 2.33366C7.23222 2.33366 5.53652 3.03604 4.28628 4.28628C3.03604 5.53652 2.33366 7.23222 2.33366 9.00033C2.33366 10.7684 3.03604 12.4641 4.28628 13.7144C5.53652 14.9646 7.23222 15.667 9.00033 15.667V15.667ZM9.00033 7.82199L11.357 5.46449L12.5362 6.64366L10.1787 9.00033L12.5362 11.357L11.357 12.5362L9.00033 10.1787L6.64366 12.5362L5.46449 11.357L7.82199 9.00033L5.46449 6.64366L6.64366 5.46449L9.00033 7.82199Z" fill="black"/>
</svg>
