<svg width="27" height="24" viewBox="0 0 27 24" fill="none" xmlns="http://www.w3.org/2000/svg">
<path d="M13.5004 12.6833L18.4505 17.6323L16.7997 19.2832L14.667 17.1505V23.6663H12.3337V17.1482L10.201 19.2832L8.5502 17.6323L13.5004 12.6833ZM13.5004 0.333008C15.5035 0.333103 17.4368 1.06931 18.9326 2.40165C20.4284 3.73398 21.3825 5.56955 21.6134 7.55934C23.065 7.95521 24.3314 8.84863 25.1911 10.0835C26.0509 11.3183 26.4494 12.816 26.3169 14.3148C26.1845 15.8136 25.5295 17.2182 24.4665 18.2831C23.4035 19.348 22.0001 20.0055 20.5015 20.1407V17.791C21.0384 17.7143 21.5546 17.5315 22.02 17.2531C22.4855 16.9748 22.8908 16.6065 23.2124 16.1698C23.5339 15.7331 23.7653 15.2367 23.8929 14.7097C24.0205 14.1826 24.0419 13.6353 23.9557 13.0999C23.8695 12.5645 23.6776 12.0516 23.391 11.5912C23.1045 11.1307 22.7291 10.732 22.2868 10.4182C21.8444 10.1044 21.3441 9.88193 20.8148 9.76365C20.2855 9.64538 19.738 9.63371 19.2042 9.72934C19.3869 8.87871 19.377 7.99797 19.1753 7.15165C18.9735 6.30533 18.585 5.51486 18.0382 4.83813C17.4914 4.16139 16.8002 3.61555 16.0151 3.24057C15.23 2.86559 14.371 2.67097 13.5009 2.67097C12.6309 2.67097 11.7719 2.86559 10.9868 3.24057C10.2017 3.61555 9.51047 4.16139 8.96367 4.83813C8.41686 5.51486 8.02836 6.30533 7.82661 7.15165C7.62486 7.99797 7.61499 8.87871 7.7977 9.72934C6.7333 9.52946 5.63308 9.76059 4.7391 10.3719C3.84511 10.9832 3.23058 11.9246 3.0307 12.989C2.83081 14.0534 3.06195 15.1536 3.67325 16.0476C4.28456 16.9416 5.22596 17.5561 6.29037 17.756L6.50037 17.791V20.1407C5.00172 20.0057 3.59817 19.3484 2.53502 18.2836C1.47187 17.2187 0.816746 15.8142 0.684151 14.3153C0.551556 12.8165 0.949924 11.3187 1.80963 10.0837C2.66933 8.84882 3.93569 7.95529 5.38737 7.55934C5.61802 5.56945 6.572 3.73374 8.06787 2.40135C9.56374 1.06896 11.4971 0.332848 13.5004 0.333008V0.333008Z" fill="#889098"/>
</svg>
