<svg width="56" height="56" viewBox="0 0 56 56" fill="none" xmlns="http://www.w3.org/2000/svg">
<g opacity="0.4">
<path fill-rule="evenodd" clip-rule="evenodd" d="M22.0495 12.7812C21.1466 13.4856 20.5502 14.5742 20.5502 16.3448C20.5502 17.791 20.8293 18.7014 21.1547 19.3003C21.4722 19.8847 21.9304 20.3515 22.5964 20.7802C23.3008 21.2337 24.2101 21.6271 25.4001 22.0368C25.9883 22.2393 26.6049 22.4327 27.2767 22.6412C27.3438 22.662 27.4114 22.683 27.4796 22.7041C27.9762 22.8581 28.5028 23.0213 29.0327 23.1936C31.5495 23.5328 34.7299 24.1608 37.4693 25.651C40.5071 27.3035 43.0243 30.0467 43.492 34.2854L43.4997 34.3546L43.5041 34.4241C43.7636 38.4997 42.7862 42.2605 39.7801 44.9222C36.8479 47.5184 32.6379 48.4784 27.8437 48.4208L27.8189 48.4205L27.794 48.4198C23.3357 48.3053 19.3437 47.3561 16.535 44.7998C13.6634 42.1863 12.6996 38.5166 12.8263 34.4171L19.6527 34.6026C19.5555 37.748 20.3276 39.3284 21.292 40.2061C22.317 41.139 24.2546 41.9208 27.9561 42.0192C31.882 42.0628 33.9935 41.2392 35.091 40.2675C36.1083 39.3667 36.8628 37.7913 36.6914 34.8788C36.4721 33.0673 35.5222 31.994 34.0418 31.1887C32.3729 30.2809 30.1232 29.7935 27.7622 29.4917L27.4144 29.4472L27.0836 29.3374C26.5147 29.1485 25.9405 28.9704 25.3308 28.7814C25.2645 28.7608 25.1977 28.7401 25.1304 28.7192C24.4609 28.5114 23.7492 28.2889 23.046 28.0468C21.6529 27.5672 20.1262 26.9566 18.7306 26.0582C17.2967 25.1351 15.9908 23.9022 15.0693 22.2061C14.1557 20.5245 13.7209 18.5737 13.7209 16.3448C13.7209 13.0755 14.9164 10.0166 17.6815 7.85968C20.3541 5.77487 24.0281 4.89828 28.249 4.95363C31.9875 4.95689 35.6082 5.67766 38.326 7.76577C41.1887 9.96533 42.4586 13.2152 42.3897 17.0291L35.5614 16.9206C35.6044 14.5395 34.8583 13.3793 33.9971 12.7177C32.997 11.9493 31.1961 11.3561 28.2235 11.3561H28.198L28.1726 11.3557C24.9002 11.3099 23.0395 12.009 22.0495 12.7812Z" fill="#11202F"/>
<path fill-rule="evenodd" clip-rule="evenodd" d="M25.4385 52.6752V3.3252H30.5604V52.6752H25.4385Z" fill="#11202F"/>
</g>
<rect x="56" y="56" width="56" height="56" transform="rotate(-180 56 56)" fill="url(#paint0_linear_1029_23898)"/>
<defs>
<linearGradient id="paint0_linear_1029_23898" x1="84" y1="56" x2="84" y2="112" gradientUnits="userSpaceOnUse">
<stop stop-color="white"/>
<stop offset="1" stop-color="white" stop-opacity="0"/>
</linearGradient>
</defs>
</svg>
