<svg width="24" height="24" viewBox="0 0 24 24" fill="none" xmlns="http://www.w3.org/2000/svg">
<g clip-path="url(#clip0_865_13224)">
<path fill-rule="evenodd" clip-rule="evenodd" d="M9.44967 5.47782C9.0627 5.77967 8.80707 6.24623 8.80707 7.00507C8.80707 7.62483 8.92672 8.01504 9.06616 8.27168C9.20223 8.52214 9.3986 8.72221 9.68404 8.90596C9.98593 9.10031 10.3756 9.26891 10.8856 9.44447C11.1377 9.53126 11.402 9.61415 11.6899 9.7035C11.7186 9.71242 11.7476 9.72141 11.7769 9.73048C11.9897 9.79646 12.2153 9.86643 12.4424 9.94026C13.5211 10.0856 14.8841 10.3548 16.0581 10.9934C17.36 11.7016 18.4388 12.8773 18.6393 14.6939L18.6426 14.7236L18.6445 14.7533C18.7557 16.5 18.3368 18.1118 17.0485 19.2525C15.7918 20.3652 13.9875 20.7766 11.9329 20.7519L11.9222 20.7518L11.9116 20.7515C10.0009 20.7024 8.29003 20.2956 7.08631 19.2001C5.85561 18.08 5.44253 16.5073 5.49686 14.7503L8.42246 14.8298C8.38078 16.1779 8.71171 16.8552 9.125 17.2313C9.5643 17.6311 10.3947 17.9662 11.9811 18.0084C13.6636 18.027 14.5685 17.6741 15.0388 17.2576C15.4749 16.8716 15.7982 16.1964 15.7248 14.9482C15.6307 14.1718 15.2237 13.7119 14.5892 13.3667C13.874 12.9777 12.9098 12.7688 11.8979 12.6394L11.7489 12.6204L11.6071 12.5733C11.3633 12.4924 11.1172 12.416 10.8559 12.335C10.8275 12.3262 10.7989 12.3173 10.7701 12.3084C10.4831 12.2193 10.1781 12.124 9.87671 12.0202C9.27969 11.8147 8.62538 11.553 8.02727 11.1679C7.41271 10.7723 6.85308 10.2439 6.45815 9.51705C6.06659 8.79635 5.88024 7.96031 5.88024 7.00507C5.88024 5.60391 6.39261 4.29297 7.57765 3.36857C8.72306 2.47508 10.2976 2.0994 12.1066 2.12312C13.7088 2.12452 15.2605 2.43342 16.4253 3.32833C17.6522 4.27099 18.1964 5.66378 18.1669 7.29832L15.2405 7.25182C15.2589 6.23136 14.9391 5.73415 14.57 5.45057C14.1414 5.12125 13.3696 4.86702 12.0957 4.86702H12.0847L12.0738 4.86687C10.6714 4.84724 9.87395 5.14686 9.44967 5.47782Z" fill="#11202F"/>
<path fill-rule="evenodd" clip-rule="evenodd" d="M10.9023 22.5758V1.42578H13.0975V22.5758H10.9023Z" fill="#11202F"/>
</g>
<defs>
<clipPath id="clip0_865_13224">
<rect width="24" height="24" fill="white"/>
</clipPath>
</defs>
</svg>
