<svg width="89" height="88" viewBox="0 0 89 88" fill="none" xmlns="http://www.w3.org/2000/svg">
<path d="M39.7791 3.94653C46.1101 3.20575 52.619 3.96544 58.5934 6.20153C63.986 8.21848 68.9566 11.393 73.0068 15.4905C69.5427 18.9254 66.1103 22.3922 62.6505 25.8314C60.4204 23.6443 57.8217 21.8224 54.9617 20.5574C51.1615 18.8541 46.936 18.1047 42.7826 18.3918C38.0904 18.6943 33.4919 20.3245 29.666 23.0582C24.9188 26.4054 21.3635 31.413 19.8003 37.0101C18.6281 41.1162 18.531 45.5154 19.4772 49.6773C20.2378 53.0813 21.7193 56.3194 23.7784 59.133C25.6896 61.7498 28.101 64.0005 30.8442 65.7253C34.0058 67.7225 37.6126 69.0098 41.3251 69.4618C44.5065 69.8615 47.7618 69.6535 50.8685 68.8603C51.2096 68.6961 51.4047 69.0846 51.6187 69.2779C55.1198 72.7971 58.6381 76.299 62.14 79.8165C55.8399 82.8758 48.7346 84.2732 41.7471 83.7799C35.899 83.3923 30.1395 81.7105 25.0142 78.866C22.8769 77.6972 20.8694 76.3033 18.9702 74.7805C17.4697 73.5078 15.9873 72.2015 14.6974 70.7114C12.5137 68.3575 10.6403 65.7175 9.09682 62.9022C8.75307 62.2388 8.35432 61.6029 8.07416 60.9085C7.69002 60.1307 7.35486 59.3307 7.02143 58.5306C6.59518 57.3902 6.13971 56.2584 5.82861 55.0802C5.79166 54.9247 5.69713 54.794 5.61205 54.6634C4.89877 52.2004 4.49916 49.6507 4.28518 47.0975C4.06002 43.8868 4.17088 40.6479 4.69596 37.4699C5.74268 30.9833 8.42651 24.7735 12.4183 19.5571C15.0067 16.1625 18.1357 13.1797 21.6531 10.7614C27.0191 7.05661 33.3003 4.68645 39.7791 3.94653ZM44.0055 8.28466C43.5156 8.36973 43.0636 8.60778 42.6838 8.92317C41.79 9.69059 41.4686 11.0553 41.9817 12.1269C42.5256 13.4177 44.1438 14.1121 45.4501 13.5879C46.7761 13.1375 47.5796 11.5675 47.1465 10.2311C46.7942 8.90512 45.3487 8.01481 44.0055 8.28466ZM20.9777 17.9088C20.5196 17.9329 20.0676 18.0738 19.6749 18.311C18.6892 18.9151 18.1383 20.1793 18.4408 21.3068C18.7063 22.5168 19.8828 23.4604 21.1272 23.4217C22.4188 23.4569 23.6263 22.4429 23.8377 21.1727C24.0302 20.285 23.6993 19.3208 23.0522 18.6934C22.516 18.1494 21.7374 17.8667 20.9777 17.9088ZM11.0124 41.2838C10.4435 41.3895 9.90893 41.6774 9.50502 42.0916C8.69291 42.9269 8.49783 44.289 9.07361 45.3074C9.68893 46.5071 11.2633 47.1 12.5094 46.5638C13.8002 46.0903 14.571 44.5511 14.1474 43.2372C13.8002 41.9129 12.3547 41.0062 11.0124 41.2838ZM20.6356 64.6631C19.6482 64.8307 18.7897 65.5843 18.501 66.5434C18.1684 67.5429 18.4898 68.7056 19.2658 69.4103C19.7943 69.8812 20.5033 70.1579 21.214 70.1253C22.1731 70.1038 23.1029 69.5349 23.5446 68.6815C23.9683 67.9227 23.9872 66.9611 23.6056 66.1807C23.1055 65.0825 21.8173 64.4336 20.6356 64.6631ZM44.0158 74.2907C43.0052 74.4643 42.1321 75.242 41.8596 76.2329C41.5271 77.3131 41.9567 78.5747 42.8831 79.2226C43.5586 79.7202 44.4661 79.8818 45.2696 79.6403C46.0955 79.4022 46.7907 78.7603 47.0803 77.949C47.5074 76.8542 47.1113 75.5153 46.1711 74.8158C45.5678 74.3474 44.766 74.1566 44.0158 74.2907Z" fill="#A0A0A0"/>
<path d="M44.0059 8.28461C45.3491 8.01476 46.7946 8.90508 47.147 10.2311C47.5801 11.5674 46.7766 13.1375 45.4505 13.5878C44.1443 14.112 42.5261 13.4177 41.9821 12.1269C41.4691 11.0552 41.7905 9.69054 42.6842 8.92312C43.0641 8.60773 43.5161 8.36969 44.0059 8.28461Z" fill="#C1C1C1"/>
<path d="M11.013 41.2845C12.3553 41.0069 13.8008 41.9135 14.148 43.2378C14.5716 44.5518 13.8008 46.091 12.51 46.5645C11.2639 47.1007 9.68953 46.5078 9.07421 45.3081C8.49843 44.2897 8.69351 42.9276 9.50562 42.0923C9.90953 41.6781 10.4441 41.3902 11.013 41.2845Z" fill="#C1C1C1"/>
<path d="M73.0072 15.4899L73.0166 15.4805C75.1341 17.6392 77.0522 20.0008 78.655 22.5677C81.7496 27.4799 83.7579 33.071 84.4876 38.8314C84.9748 42.6883 84.9404 46.6173 84.3114 50.4562C83.22 57.332 80.2775 63.8977 75.8981 69.3074C72.2629 73.8174 67.6593 77.5609 62.4566 80.1149L62.4025 80.0926C62.3157 79.998 62.228 79.907 62.1404 79.8159C58.6384 76.2984 55.1201 72.7965 51.619 69.2773C51.4051 69.084 51.21 68.6955 50.8688 68.8597C47.7622 69.6529 44.5069 69.8609 41.3254 69.4613C37.6129 69.0092 34.0062 67.7219 30.8445 65.7247C28.1014 63.9999 25.69 61.7492 23.7787 59.1324C21.7197 56.3188 20.2381 53.0807 19.4776 49.6767C18.5314 45.5148 18.6285 41.1156 19.8007 37.0095C21.3639 31.4124 24.9191 26.4048 29.6663 23.0576C33.4922 20.3239 38.0908 18.6937 42.7829 18.3912C46.9363 18.1041 51.1618 18.8535 54.962 20.5568C57.822 21.8218 60.4208 23.6437 62.6508 25.8308C66.1107 22.3916 69.543 18.9248 73.0072 15.4899ZM42.7786 31.2998C40.9542 31.5448 39.1787 32.1833 37.6327 33.1853C35.6493 34.4271 34.044 36.243 33.0007 38.3338C31.7477 40.8432 31.3988 43.7659 31.9265 46.5125C32.2642 48.2184 32.9603 49.8537 33.9511 51.2829C34.6326 52.2729 35.4679 53.1443 36.3273 53.9796C41.2541 58.9133 46.1766 63.8504 51.1077 68.7789C55.3264 67.6557 59.2434 65.4325 62.3698 62.3852C66.2465 58.6606 68.8719 53.6677 69.7871 48.3722C69.8077 48.2828 69.806 48.1221 69.9461 48.1488C72.4924 48.1522 75.0387 48.1479 77.5859 48.153C79.2222 48.1273 80.7544 46.8837 81.0887 45.2776C81.1076 45.1736 81.0887 45.0782 81.0312 44.9897C81.136 44.499 81.2099 43.9945 81.1497 43.4918L81.1291 43.5262C80.9529 41.7782 79.3382 40.3362 77.5842 40.3319C70.6542 40.3259 63.7242 40.331 56.7933 40.3259C56.2399 38.4284 55.2035 36.6881 53.8689 35.2358C51.6517 32.8725 48.5184 31.3677 45.2734 31.2122C44.4415 31.2139 43.6028 31.1658 42.7786 31.2998ZM67.3886 64.6702C66.3023 64.8473 65.3802 65.7522 65.18 66.8341C65.0528 67.5337 65.1679 68.2968 65.5865 68.8837C66.0815 69.6744 67.0302 70.1522 67.9592 70.1084C68.6742 70.1109 69.3583 69.7689 69.8636 69.2782C70.2821 68.797 70.5897 68.1894 70.6087 67.5423C70.6826 66.5652 70.1738 65.5571 69.3308 65.0535C68.7704 64.6702 68.0512 64.5594 67.3886 64.6702Z" fill="#686868"/>
<path d="M20.9782 17.9084C21.7379 17.8663 22.5165 18.149 23.0527 18.693C23.6998 19.3204 24.0307 20.2846 23.8382 21.1723C23.6268 22.4425 22.4194 23.4565 21.1277 23.4213C19.8833 23.46 18.7069 22.5164 18.4413 21.3064C18.1388 20.1789 18.6897 18.9147 19.6754 18.3106C20.0681 18.0734 20.5201 17.9325 20.9782 17.9084Z" fill="#C3C3C3"/>
<path d="M42.7791 31.2998C43.6033 31.1657 44.442 31.2138 45.2739 31.2121C48.5189 31.3677 51.6522 32.8724 53.8694 35.2357C55.204 36.688 56.2404 38.4283 56.7938 40.3258C52.6972 40.3249 48.5997 40.3249 44.5022 40.3249C43.4546 40.3155 42.4199 40.7907 41.7341 41.5805C41.2176 42.1691 40.8971 42.9254 40.8369 43.7066C40.7347 44.9243 41.2976 46.173 42.2712 46.9103C42.9261 47.4182 43.7562 47.6837 44.5847 47.6666C55.4721 47.6631 66.3604 47.6614 77.2478 47.6691C77.6569 47.6726 78.0719 47.6562 78.4681 47.5419C79.6893 47.2137 80.7042 46.2125 81.0316 44.9896C81.0892 45.0781 81.1081 45.1735 81.0892 45.2775C80.7549 46.8837 79.2226 48.1272 77.5864 48.153C75.0392 48.1478 72.4929 48.1521 69.9465 48.1487C69.8065 48.122 69.8082 48.2827 69.7876 48.3721C68.8723 53.6676 66.2469 58.6605 62.3703 62.3851C59.2439 65.4324 55.3269 67.6556 51.1082 68.7788C46.1771 63.8503 41.2546 58.9132 36.3278 53.9795C35.4684 53.1442 34.6331 52.2728 33.9516 51.2828C32.9608 49.8537 32.2647 48.2183 31.9269 46.5124C31.3993 43.7659 31.7482 40.8431 33.0011 38.3337C34.0444 36.2429 35.6497 34.427 37.6332 33.1852C39.1792 32.1832 40.9547 31.5447 42.7791 31.2998Z" fill="#474747"/>
<path d="M41.7341 41.5799C42.4199 40.7901 43.4546 40.3149 44.5022 40.3244C48.5996 40.3244 52.6971 40.3244 56.7938 40.3252C63.7246 40.3304 70.6546 40.3252 77.5846 40.3312C79.3386 40.3355 80.9534 41.7776 81.1296 43.5255C81.1132 43.5539 81.0797 43.6089 81.0625 43.6364C80.7463 42.0457 79.2089 40.7867 77.5846 40.7962C66.845 40.8047 56.1054 40.8065 45.3658 40.8108C44.7015 40.8219 44.0132 40.742 43.3764 40.9792C42.5978 41.2233 41.9386 41.7612 41.4625 42.4144C41.1755 42.8054 41.0853 43.2944 40.8369 43.706C40.8971 42.9248 41.2176 42.1686 41.7341 41.5799Z" fill="#BFBFBF"/>
<path d="M20.6361 64.6612C21.8178 64.4317 23.106 65.0806 23.6061 66.1789C23.9877 66.9592 23.9688 67.9208 23.5451 68.6796C23.1034 69.533 22.1735 70.1019 21.2145 70.1234C20.5038 70.156 19.7948 69.8793 19.2663 69.4084C18.4903 68.7037 18.1688 67.541 18.5014 66.5415C18.7902 65.5824 19.6487 64.8288 20.6361 64.6612Z" fill="#BFBFBF"/>
<path d="M43.3756 40.98C44.0124 40.7428 44.7007 40.8227 45.365 40.8115C56.1046 40.8072 66.8442 40.8055 77.5839 40.7969C79.2081 40.7875 80.7455 42.0465 81.0618 43.6372C81.0789 43.6097 81.1124 43.5547 81.1288 43.5263L81.1494 43.4919C81.2096 43.9947 81.1357 44.4991 81.0308 44.9898C80.7034 46.2127 79.6885 47.2139 78.4673 47.5422C78.0711 47.6565 77.656 47.6728 77.247 47.6694C66.3596 47.6616 55.4713 47.6633 44.5839 47.6668C43.7554 47.684 42.9253 47.4184 42.2704 46.9105C41.2968 46.1732 40.7339 44.9245 40.8361 43.7068C41.0845 43.2951 41.1747 42.8061 41.4618 42.4151C41.9378 41.762 42.597 41.224 43.3756 40.98Z" fill="#B0B0B0"/>
<path d="M5.6123 54.6641C5.69738 54.7947 5.79191 54.9253 5.82887 55.0809C6.13996 56.2591 6.59543 57.3909 7.02168 58.5312C7.35512 59.3313 7.69027 60.1314 8.07441 60.9091C8.35457 61.6035 8.75332 62.2395 9.09707 62.9029C10.6405 65.7182 12.5139 68.3582 14.6976 70.712C15.9875 72.2022 17.47 73.5084 18.9704 74.7812C20.8696 76.304 22.8771 77.6979 25.0144 78.8666C30.1397 81.7112 35.8993 83.393 41.7473 83.7805C48.7349 84.2738 55.8402 82.8765 62.1403 79.8171C62.2279 79.9082 62.3156 79.9993 62.4024 80.0938L62.405 80.1462C58.7681 81.9535 54.8528 83.1996 50.8412 83.8338C45.9505 84.5987 40.9189 84.4775 36.0754 83.4471C30.2411 82.2139 24.6956 79.6478 19.969 76.0127C14.5103 71.8335 10.1446 66.239 7.43418 59.9191C6.71059 58.2116 6.0652 56.4627 5.6123 54.6641Z" fill="#939393"/>
<path d="M67.3885 64.6697C68.051 64.5589 68.7703 64.6697 69.3307 65.053C70.1737 65.5566 70.6824 66.5646 70.6085 67.5417C70.5896 68.1889 70.282 68.7964 69.8635 69.2777C69.3582 69.7684 68.6741 70.1104 67.9591 70.1078C67.0301 70.1517 66.0814 69.6739 65.5864 68.8832C65.1678 68.2963 65.0527 67.5332 65.1799 66.8336C65.3801 65.7517 66.3022 64.8468 67.3885 64.6697Z" fill="#767676"/>
<path d="M44.016 74.29C44.7662 74.1559 45.568 74.3467 46.1713 74.815C47.1114 75.5146 47.5076 76.8535 47.0805 77.9483C46.7909 78.7596 46.0957 79.4015 45.2698 79.6396C44.4663 79.8811 43.5588 79.7195 42.8833 79.2219C41.9569 78.574 41.5272 77.3124 41.8598 76.2322C42.1322 75.2413 43.0053 74.4636 44.016 74.29Z" fill="#BEBEBE"/>
</svg>
