<svg width="24" height="24" viewBox="0 0 24 24" fill="none" xmlns="http://www.w3.org/2000/svg">
<g clip-path="url(#clip0_909_12053)">
<path d="M5 10C5.26522 10 5.51957 10.1054 5.70711 10.2929C5.89464 10.4804 6 10.7348 6 11C7.57114 10.9977 9.09698 11.5263 10.33 12.5H12.5C13.832 12.5 15.03 13.079 15.853 13.999L19 14C19.9453 13.9997 20.8712 14.2674 21.6705 14.772C22.4698 15.2767 23.1097 15.9975 23.516 16.851C21.151 19.972 17.322 22 13 22C10.21 22 7.85 21.397 5.94 20.342C5.87004 20.5351 5.74224 20.7018 5.57402 20.8196C5.40579 20.9374 5.20534 21.0003 5 21H2C1.73478 21 1.48043 20.8946 1.29289 20.7071C1.10536 20.5196 1 20.2652 1 20V11C1 10.7348 1.10536 10.4804 1.29289 10.2929C1.48043 10.1054 1.73478 10 2 10H5ZM6.001 13L6 18.021L6.045 18.054C7.84 19.314 10.178 20 13 20C16.004 20 18.799 18.844 20.835 16.87L20.968 16.737L20.848 16.637C20.3758 16.2672 19.8034 16.0477 19.205 16.007L19 16L16.888 15.999C16.961 16.321 17 16.656 17 17V18H8V16L14.79 15.999L14.756 15.921C14.5644 15.5205 14.2696 15.1783 13.9019 14.9295C13.5343 14.6806 13.107 14.5341 12.664 14.505L12.5 14.5H9.57C9.10531 14.0247 8.55027 13.6472 7.93752 13.3896C7.32477 13.132 6.66569 12.9995 6.001 13ZM4 12H3V19H4V12Z" fill="url(#paint0_linear_909_12053)"/>
<path d="M5 10C5.26522 10 5.51957 10.1054 5.70711 10.2929C5.89464 10.4804 6 10.7348 6 11C7.57114 10.9977 9.09698 11.5263 10.33 12.5H12.5C13.832 12.5 15.03 13.079 15.853 13.999L19 14C19.9453 13.9997 20.8712 14.2674 21.6705 14.772C22.4698 15.2767 23.1097 15.9975 23.516 16.851C21.151 19.972 17.322 22 13 22C10.21 22 7.85 21.397 5.94 20.342C5.87004 20.5351 5.74224 20.7018 5.57402 20.8196C5.40579 20.9374 5.20534 21.0003 5 21H2C1.73478 21 1.48043 20.8946 1.29289 20.7071C1.10536 20.5196 1 20.2652 1 20V11C1 10.7348 1.10536 10.4804 1.29289 10.2929C1.48043 10.1054 1.73478 10 2 10H5ZM6.001 13L6 18.021L6.045 18.054C7.84 19.314 10.178 20 13 20C16.004 20 18.799 18.844 20.835 16.87L20.968 16.737L20.848 16.637C20.3758 16.2672 19.8034 16.0477 19.205 16.007L19 16L16.888 15.999C16.961 16.321 17 16.656 17 17V18H8V16L14.79 15.999L14.756 15.921C14.5644 15.5205 14.2696 15.1783 13.9019 14.9295C13.5343 14.6806 13.107 14.5341 12.664 14.505L12.5 14.5H9.57C9.10531 14.0247 8.55027 13.6472 7.93752 13.3896C7.32477 13.132 6.66569 12.9995 6.001 13ZM4 12H3V19H4V12Z" fill="url(#paint1_linear_909_12053)"/>
<path d="M19.5156 12C19.2504 12 18.9961 11.8946 18.8085 11.7071C18.621 11.5196 18.5156 11.2652 18.5156 11C16.9445 11.0023 15.4186 10.4737 14.1856 9.5L12.0156 9.5C10.6836 9.5 9.48563 8.921 8.66263 8.001L5.51563 8C4.57037 8.00026 3.64439 7.73256 2.84509 7.22795C2.04579 6.72335 1.4059 6.0025 0.999625 5.149C3.36462 2.028 7.19363 -1.42691e-06 11.5156 -1.04907e-06C14.3056 -8.05164e-07 16.6656 0.603 18.5756 1.658C18.6456 1.46494 18.7734 1.29816 18.9416 1.1804C19.1098 1.06265 19.3103 0.99965 19.5156 1L22.5156 1C22.7808 1 23.0352 1.10536 23.2227 1.29289C23.4103 1.48043 23.5156 1.73478 23.5156 2L23.5156 11C23.5156 11.2652 23.4103 11.5196 23.2227 11.7071C23.0352 11.8946 22.7808 12 22.5156 12L19.5156 12ZM18.5146 9L18.5156 3.979L18.4706 3.946C16.6756 2.686 14.3376 2 11.5156 2C8.51163 2 5.71663 3.156 3.68063 5.13L3.54763 5.263L3.66763 5.363C4.13982 5.73283 4.71222 5.95231 5.31063 5.993L5.51563 6L7.62763 6.001C7.55463 5.679 7.51563 5.344 7.51563 5L7.51563 4L16.5156 4L16.5156 6L9.72563 6.001L9.75963 6.079C9.95127 6.47946 10.2461 6.82169 10.6137 7.07054C10.9814 7.31939 11.4086 7.46589 11.8516 7.495L12.0156 7.5L14.9456 7.5C15.4103 7.97527 15.9654 8.35282 16.5781 8.61042C17.1909 8.86802 17.8499 9.00048 18.5146 9ZM20.5156 10L21.5156 10L21.5156 3L20.5156 3L20.5156 10Z" fill="url(#paint2_linear_909_12053)"/>
<path d="M19.5156 12C19.2504 12 18.9961 11.8946 18.8085 11.7071C18.621 11.5196 18.5156 11.2652 18.5156 11C16.9445 11.0023 15.4186 10.4737 14.1856 9.5L12.0156 9.5C10.6836 9.5 9.48563 8.921 8.66263 8.001L5.51563 8C4.57037 8.00026 3.64439 7.73256 2.84509 7.22795C2.04579 6.72335 1.4059 6.0025 0.999625 5.149C3.36462 2.028 7.19363 -1.42691e-06 11.5156 -1.04907e-06C14.3056 -8.05164e-07 16.6656 0.603 18.5756 1.658C18.6456 1.46494 18.7734 1.29816 18.9416 1.1804C19.1098 1.06265 19.3103 0.99965 19.5156 1L22.5156 1C22.7808 1 23.0352 1.10536 23.2227 1.29289C23.4103 1.48043 23.5156 1.73478 23.5156 2L23.5156 11C23.5156 11.2652 23.4103 11.5196 23.2227 11.7071C23.0352 11.8946 22.7808 12 22.5156 12L19.5156 12ZM18.5146 9L18.5156 3.979L18.4706 3.946C16.6756 2.686 14.3376 2 11.5156 2C8.51163 2 5.71663 3.156 3.68063 5.13L3.54763 5.263L3.66763 5.363C4.13982 5.73283 4.71222 5.95231 5.31063 5.993L5.51563 6L7.62763 6.001C7.55463 5.679 7.51563 5.344 7.51563 5L7.51563 4L16.5156 4L16.5156 6L9.72563 6.001L9.75963 6.079C9.95127 6.47946 10.2461 6.82169 10.6137 7.07054C10.9814 7.31939 11.4086 7.46589 11.8516 7.495L12.0156 7.5L14.9456 7.5C15.4103 7.97527 15.9654 8.35282 16.5781 8.61042C17.1909 8.86802 17.8499 9.00048 18.5146 9ZM20.5156 10L21.5156 10L21.5156 3L20.5156 3L20.5156 10Z" fill="url(#paint3_linear_909_12053)"/>
</g>
<defs>
<linearGradient id="paint0_linear_909_12053" x1="12.258" y1="10" x2="12.258" y2="22" gradientUnits="userSpaceOnUse">
<stop stop-color="#58636E"/>
<stop offset="1" stop-color="#11202F"/>
</linearGradient>
<linearGradient id="paint1_linear_909_12053" x1="12.258" y1="10" x2="12.258" y2="22" gradientUnits="userSpaceOnUse">
<stop stop-color="#58636E"/>
<stop offset="1" stop-color="#11202F"/>
</linearGradient>
<linearGradient id="paint2_linear_909_12053" x1="12.2576" y1="12" x2="12.2576" y2="-9.84206e-07" gradientUnits="userSpaceOnUse">
<stop stop-color="#58636E"/>
<stop offset="1" stop-color="#11202F"/>
</linearGradient>
<linearGradient id="paint3_linear_909_12053" x1="12.2576" y1="12" x2="12.2576" y2="-9.84206e-07" gradientUnits="userSpaceOnUse">
<stop stop-color="#58636E"/>
<stop offset="1" stop-color="#11202F"/>
</linearGradient>
<clipPath id="clip0_909_12053">
<rect width="24" height="24" fill="white"/>
</clipPath>
</defs>
</svg>
