<svg width="118" height="108" viewBox="0 0 118 108" fill="none" xmlns="http://www.w3.org/2000/svg">
<ellipse opacity="0.25" cx="59" cy="69" rx="44" ry="5" fill="#E73A3A"/>
<path d="M89 53.3333L72.3233 70H32.3267C31.4467 70.0018 30.6021 69.6541 29.9783 69.0335C29.3545 68.4128 29.0026 67.5699 29 66.69V13.31C29 11.4833 30.4833 10 32.31 10H85.69C87.5167 10 89 11.49 89 13.33V53.3333Z" fill="url(#paint0_linear_575_17580)"/>
<path fill-rule="evenodd" clip-rule="evenodd" d="M74 42H56V36H74V42Z" fill="url(#paint1_linear_575_17580)"/>
<path d="M86 38.6603L74 46.5V31L86 38.6603Z" fill="url(#paint2_linear_575_17580)"/>
<path d="M66.5 33.2884V23H45.5V54H66.5V44.1609" stroke="url(#paint3_linear_575_17580)" stroke-width="6"/>
<path d="M0.446738 104L4.37674 92.825H6.56674L10.4967 104H8.60674L7.75174 101.495H3.20674L2.33674 104H0.446738ZM3.71674 99.92H7.21174L5.23174 94.07H5.72674L3.71674 99.92ZM11.6575 104V95.885H13.2775V97.52L13.1275 97.28C13.3075 96.75 13.5975 96.37 13.9975 96.14C14.3975 95.9 14.8775 95.78 15.4375 95.78H15.9325V97.325H15.2275C14.6675 97.325 14.2125 97.5 13.8625 97.85C13.5225 98.19 13.3525 98.68 13.3525 99.32V104H11.6575ZM20.9021 104.18C20.0921 104.18 19.3721 103.995 18.7421 103.625C18.1221 103.245 17.6371 102.735 17.2871 102.095C16.9371 101.445 16.7621 100.72 16.7621 99.92C16.7621 99.1 16.9371 98.375 17.2871 97.745C17.6471 97.115 18.1271 96.62 18.7271 96.26C19.3271 95.89 20.0071 95.705 20.7671 95.705C21.3771 95.705 21.9221 95.81 22.4021 96.02C22.8821 96.23 23.2871 96.52 23.6171 96.89C23.9471 97.25 24.1971 97.665 24.3671 98.135C24.5471 98.605 24.6371 99.105 24.6371 99.635C24.6371 99.765 24.6321 99.9 24.6221 100.04C24.6121 100.18 24.5921 100.31 24.5621 100.43H18.0971V99.08H23.6021L22.7921 99.695C22.8921 99.205 22.8571 98.77 22.6871 98.39C22.5271 98 22.2771 97.695 21.9371 97.475C21.6071 97.245 21.2171 97.13 20.7671 97.13C20.3171 97.13 19.9171 97.245 19.5671 97.475C19.2171 97.695 18.9471 98.015 18.7571 98.435C18.5671 98.845 18.4921 99.345 18.5321 99.935C18.4821 100.485 18.5571 100.965 18.7571 101.375C18.9671 101.785 19.2571 102.105 19.6271 102.335C20.0071 102.565 20.4371 102.68 20.9171 102.68C21.4071 102.68 21.8221 102.57 22.1621 102.35C22.5121 102.13 22.7871 101.845 22.9871 101.495L24.3671 102.17C24.2071 102.55 23.9571 102.895 23.6171 103.205C23.2871 103.505 22.8871 103.745 22.4171 103.925C21.9571 104.095 21.4521 104.18 20.9021 104.18ZM29.6333 107.315C29.4333 107.315 29.2333 107.295 29.0333 107.255C28.8433 107.225 28.6683 107.175 28.5083 107.105V105.65C28.6283 105.68 28.7733 105.705 28.9433 105.725C29.1133 105.755 29.2783 105.77 29.4383 105.77C29.9083 105.77 30.2533 105.665 30.4733 105.455C30.7033 105.255 30.9083 104.94 31.0883 104.51L31.6283 103.28L31.5983 104.705L28.0883 95.885H29.9033L32.4983 102.65H31.8833L34.4633 95.885H36.2933L32.7083 104.885C32.5183 105.365 32.2783 105.785 31.9883 106.145C31.7083 106.515 31.3733 106.8 30.9833 107C30.6033 107.21 30.1533 107.315 29.6333 107.315ZM41.2219 104.18C40.4419 104.18 39.7269 103.995 39.0769 103.625C38.4369 103.255 37.9269 102.75 37.5469 102.11C37.1669 101.47 36.9769 100.745 36.9769 99.935C36.9769 99.115 37.1669 98.39 37.5469 97.76C37.9269 97.12 38.4369 96.62 39.0769 96.26C39.7169 95.89 40.4319 95.705 41.2219 95.705C42.0219 95.705 42.7369 95.89 43.3669 96.26C44.0069 96.62 44.5119 97.12 44.8819 97.76C45.2619 98.39 45.4519 99.115 45.4519 99.935C45.4519 100.755 45.2619 101.485 44.8819 102.125C44.5019 102.765 43.9919 103.27 43.3519 103.64C42.7119 104 42.0019 104.18 41.2219 104.18ZM41.2219 102.605C41.7019 102.605 42.1269 102.49 42.4969 102.26C42.8669 102.03 43.1569 101.715 43.3669 101.315C43.5869 100.905 43.6969 100.445 43.6969 99.935C43.6969 99.425 43.5869 98.97 43.3669 98.57C43.1569 98.17 42.8669 97.855 42.4969 97.625C42.1269 97.395 41.7019 97.28 41.2219 97.28C40.7519 97.28 40.3269 97.395 39.9469 97.625C39.5769 97.855 39.2819 98.17 39.0619 98.57C38.8519 98.97 38.7469 99.425 38.7469 99.935C38.7469 100.445 38.8519 100.905 39.0619 101.315C39.2819 101.715 39.5769 102.03 39.9469 102.26C40.3269 102.49 40.7519 102.605 41.2219 102.605ZM50.0017 104.18C49.3917 104.18 48.8567 104.045 48.3967 103.775C47.9367 103.495 47.5767 103.11 47.3167 102.62C47.0667 102.12 46.9417 101.545 46.9417 100.895V95.885H48.6367V100.745C48.6367 101.115 48.7117 101.44 48.8617 101.72C49.0117 102 49.2217 102.22 49.4917 102.38C49.7617 102.53 50.0717 102.605 50.4217 102.605C50.7817 102.605 51.0967 102.525 51.3667 102.365C51.6367 102.205 51.8467 101.98 51.9967 101.69C52.1567 101.4 52.2367 101.06 52.2367 100.67V95.885H53.9167V104H52.3117V102.41L52.4917 102.62C52.3017 103.12 51.9867 103.505 51.5467 103.775C51.1067 104.045 50.5917 104.18 50.0017 104.18ZM58.5178 104V92.645H60.2128V104H58.5178ZM66.0046 104.18C65.1946 104.18 64.4746 103.995 63.8446 103.625C63.2246 103.245 62.7396 102.735 62.3896 102.095C62.0396 101.445 61.8646 100.72 61.8646 99.92C61.8646 99.1 62.0396 98.375 62.3896 97.745C62.7496 97.115 63.2296 96.62 63.8296 96.26C64.4296 95.89 65.1096 95.705 65.8696 95.705C66.4796 95.705 67.0246 95.81 67.5046 96.02C67.9846 96.23 68.3896 96.52 68.7196 96.89C69.0496 97.25 69.2996 97.665 69.4696 98.135C69.6496 98.605 69.7396 99.105 69.7396 99.635C69.7396 99.765 69.7346 99.9 69.7246 100.04C69.7146 100.18 69.6946 100.31 69.6646 100.43H63.1996V99.08H68.7046L67.8946 99.695C67.9946 99.205 67.9596 98.77 67.7896 98.39C67.6296 98 67.3796 97.695 67.0396 97.475C66.7096 97.245 66.3196 97.13 65.8696 97.13C65.4196 97.13 65.0196 97.245 64.6696 97.475C64.3196 97.695 64.0496 98.015 63.8596 98.435C63.6696 98.845 63.5946 99.345 63.6346 99.935C63.5846 100.485 63.6596 100.965 63.8596 101.375C64.0696 101.785 64.3596 102.105 64.7296 102.335C65.1096 102.565 65.5396 102.68 66.0196 102.68C66.5096 102.68 66.9246 102.57 67.2646 102.35C67.6146 102.13 67.8896 101.845 68.0896 101.495L69.4696 102.17C69.3096 102.55 69.0596 102.895 68.7196 103.205C68.3896 103.505 67.9896 103.745 67.5196 103.925C67.0596 104.095 66.5546 104.18 66.0046 104.18ZM73.7506 104.18C73.2006 104.18 72.7156 104.085 72.2956 103.895C71.8856 103.695 71.5656 103.425 71.3356 103.085C71.1056 102.735 70.9906 102.325 70.9906 101.855C70.9906 101.415 71.0856 101.02 71.2756 100.67C71.4756 100.32 71.7806 100.025 72.1906 99.785C72.6006 99.545 73.1156 99.375 73.7356 99.275L76.5556 98.81V100.145L74.0656 100.58C73.6156 100.66 73.2856 100.805 73.0756 101.015C72.8656 101.215 72.7606 101.475 72.7606 101.795C72.7606 102.105 72.8756 102.36 73.1056 102.56C73.3456 102.75 73.6506 102.845 74.0206 102.845C74.4806 102.845 74.8806 102.745 75.2206 102.545C75.5706 102.345 75.8406 102.08 76.0306 101.75C76.2206 101.41 76.3156 101.035 76.3156 100.625V98.54C76.3156 98.14 76.1656 97.815 75.8656 97.565C75.5756 97.305 75.1856 97.175 74.6956 97.175C74.2456 97.175 73.8506 97.295 73.5106 97.535C73.1806 97.765 72.9356 98.065 72.7756 98.435L71.3656 97.73C71.5156 97.33 71.7606 96.98 72.1006 96.68C72.4406 96.37 72.8356 96.13 73.2856 95.96C73.7456 95.79 74.2306 95.705 74.7406 95.705C75.3806 95.705 75.9456 95.825 76.4356 96.065C76.9356 96.305 77.3206 96.64 77.5906 97.07C77.8706 97.49 78.0106 97.98 78.0106 98.54V104H76.3906V102.53L76.7356 102.575C76.5456 102.905 76.3006 103.19 76.0006 103.43C75.7106 103.67 75.3756 103.855 74.9956 103.985C74.6256 104.115 74.2106 104.18 73.7506 104.18ZM82.201 104L79.021 95.885H80.866L83.311 102.5H82.636L85.081 95.885H86.941L83.746 104H82.201ZM88.093 104V95.885H89.788V104H88.093ZM88.093 94.775V92.825H89.788V94.775H88.093ZM91.7698 104V95.885H93.3898V97.475L93.1948 97.265C93.3948 96.755 93.7148 96.37 94.1548 96.11C94.5948 95.84 95.1048 95.705 95.6848 95.705C96.2848 95.705 96.8148 95.835 97.2748 96.095C97.7348 96.355 98.0948 96.715 98.3548 97.175C98.6148 97.635 98.7448 98.165 98.7448 98.765V104H97.0648V99.215C97.0648 98.805 96.9898 98.46 96.8398 98.18C96.6898 97.89 96.4748 97.67 96.1948 97.52C95.9248 97.36 95.6148 97.28 95.2648 97.28C94.9148 97.28 94.5998 97.36 94.3198 97.52C94.0498 97.67 93.8398 97.89 93.6898 98.18C93.5398 98.47 93.4648 98.815 93.4648 99.215V104H91.7698ZM104.474 107.3C103.884 107.3 103.339 107.205 102.839 107.015C102.339 106.825 101.909 106.56 101.549 106.22C101.189 105.89 100.919 105.5 100.739 105.05L102.299 104.405C102.439 104.785 102.694 105.1 103.064 105.35C103.444 105.6 103.909 105.725 104.459 105.725C104.889 105.725 105.274 105.64 105.614 105.47C105.954 105.31 106.224 105.07 106.424 104.75C106.624 104.44 106.724 104.065 106.724 103.625V101.795L107.024 102.14C106.744 102.66 106.354 103.055 105.854 103.325C105.364 103.595 104.809 103.73 104.189 103.73C103.439 103.73 102.764 103.555 102.164 103.205C101.564 102.855 101.089 102.375 100.739 101.765C100.399 101.155 100.229 100.47 100.229 99.71C100.229 98.94 100.399 98.255 100.739 97.655C101.089 97.055 101.559 96.58 102.149 96.23C102.739 95.88 103.414 95.705 104.174 95.705C104.794 95.705 105.344 95.84 105.824 96.11C106.314 96.37 106.714 96.75 107.024 97.25L106.799 97.67V95.885H108.404V103.625C108.404 104.325 108.234 104.95 107.894 105.5C107.564 106.06 107.104 106.5 106.514 106.82C105.924 107.14 105.244 107.3 104.474 107.3ZM104.384 102.155C104.834 102.155 105.234 102.05 105.584 101.84C105.934 101.62 106.209 101.33 106.409 100.97C106.619 100.6 106.724 100.185 106.724 99.725C106.724 99.265 106.619 98.85 106.409 98.48C106.199 98.11 105.919 97.82 105.569 97.61C105.219 97.39 104.824 97.28 104.384 97.28C103.924 97.28 103.514 97.39 103.154 97.61C102.794 97.82 102.509 98.11 102.299 98.48C102.099 98.84 101.999 99.255 101.999 99.725C101.999 100.175 102.099 100.585 102.299 100.955C102.509 101.325 102.794 101.62 103.154 101.84C103.514 102.05 103.924 102.155 104.384 102.155ZM112.338 100.67V100.415C112.338 99.975 112.408 99.585 112.548 99.245C112.698 98.905 112.883 98.6 113.103 98.33C113.333 98.05 113.568 97.795 113.808 97.565C114.148 97.245 114.448 96.935 114.708 96.635C114.978 96.335 115.113 95.985 115.113 95.585C115.113 95.335 115.053 95.11 114.933 94.91C114.813 94.7 114.633 94.535 114.393 94.415C114.163 94.285 113.878 94.22 113.538 94.22C113.068 94.22 112.663 94.365 112.323 94.655C111.993 94.935 111.783 95.315 111.693 95.795L110.118 95.42C110.208 94.87 110.408 94.39 110.718 93.98C111.038 93.56 111.438 93.235 111.918 93.005C112.408 92.765 112.958 92.645 113.568 92.645C114.258 92.645 114.848 92.785 115.338 93.065C115.838 93.335 116.218 93.69 116.478 94.13C116.738 94.57 116.868 95.045 116.868 95.555C116.868 95.965 116.783 96.335 116.613 96.665C116.453 96.985 116.243 97.28 115.983 97.55C115.733 97.82 115.473 98.085 115.203 98.345C114.883 98.655 114.598 98.98 114.348 99.32C114.108 99.65 113.988 100.04 113.988 100.49V100.67H112.338ZM112.338 104V102.05H114.063V104H112.338Z" fill="#404D58"/>
<defs>
<linearGradient id="paint0_linear_575_17580" x1="35.8222" y1="9.99999" x2="85.6684" y2="11.7907" gradientUnits="userSpaceOnUse">
<stop stop-color="#EA5A5A"/>
<stop offset="1" stop-color="#FB6C6C"/>
</linearGradient>
<linearGradient id="paint1_linear_575_17580" x1="71.8223" y1="25.6699" x2="72.6781" y2="79.7925" gradientUnits="userSpaceOnUse">
<stop stop-color="white"/>
<stop offset="1" stop-color="white" stop-opacity="0"/>
</linearGradient>
<linearGradient id="paint2_linear_575_17580" x1="71.8223" y1="25.6699" x2="72.6781" y2="79.7925" gradientUnits="userSpaceOnUse">
<stop stop-color="white"/>
<stop offset="1" stop-color="white" stop-opacity="0"/>
</linearGradient>
<linearGradient id="paint3_linear_575_17580" x1="56.5756" y1="-116.5" x2="189.76" y2="432.546" gradientUnits="userSpaceOnUse">
<stop stop-color="white"/>
<stop offset="1" stop-color="white" stop-opacity="0"/>
</linearGradient>
</defs>
</svg>
