<svg width="17" height="18" viewBox="0 0 17 18" fill="none" xmlns="http://www.w3.org/2000/svg">
<path d="M1.16634 17.3327C0.945327 17.3327 0.733366 17.2449 0.577086 17.0886C0.420805 16.9323 0.333008 16.7204 0.333008 16.4993V1.49935C0.333008 1.27834 0.420805 1.06637 0.577086 0.910093C0.733366 0.753813 0.945327 0.666016 1.16634 0.666016H12.833C13.054 0.666016 13.266 0.753813 13.4223 0.910093C13.5785 1.06637 13.6663 1.27834 13.6663 1.49935V3.99935H11.9997V2.33268H1.99967V15.666H11.9997V13.9993H13.6663V16.4993C13.6663 16.7204 13.5785 16.9323 13.4223 17.0886C13.266 17.2449 13.054 17.3327 12.833 17.3327H1.16634ZM11.9997 12.3327V9.83268H6.16634V8.16602H11.9997V5.66602L16.1663 8.99935L11.9997 12.3327Z" fill="black"/>
</svg>
