<svg width="193" height="16" viewBox="0 0 193 16" fill="none" xmlns="http://www.w3.org/2000/svg">
<path d="M3.8045 0.179688V15.7983H0V0.179688H3.8045Z" fill="#1C75BC"/>
<path d="M20.579 15.7983H16.7745L10.4129 6.1647V15.7983H6.6084V0.179688H10.4129L16.7745 9.85645V0.179688H20.579V15.7983Z" fill="#1C75BC"/>
<path d="M27.1854 3.79688V6.51951H31.947V9.47964H27.1854V15.7981H23.3809V3.79688" fill="#1C75BC"/>
<path d="M33.547 0.179688H23.3809V3.22856H33.547V0.179688Z" fill="#3BB85D"/>
<path d="M76.8196 0.179688H64.7393V3.22856H76.8196V0.179688Z" fill="#3BB85D"/>
<path d="M39.4002 0.179688V15.7983H35.5957V0.179688H39.4002Z" fill="#1C75BC"/>
<path d="M56.1747 15.7983H52.3702L46.0086 6.1647V15.7983H42.2041V0.179688H46.0086L52.3702 9.85645V0.179688H56.1747V15.7983Z" fill="#1C75BC"/>
<path d="M62.7811 0.179688V15.7983H58.9766V0.179688H62.7811Z" fill="#1C75BC"/>
<path d="M72.6814 3.79688V15.7981H68.877V3.79688" fill="#1C75BC"/>
<path d="M82.5809 3.22856V6.38779H87.6759V9.32392H82.5809V12.7494H88.3428V15.7983H78.7764V0.179688H88.3428V3.22856H82.5809Z" fill="#1C75BC"/>
<path d="M100.429 3.84082V6.43152H105.524V9.36766H100.429V12.7931H106.19V15.842H96.624V3.84082" fill="#3BB85D"/>
<path d="M111.283 15.4411C110.378 15.0693 109.654 14.5223 109.114 13.7955C108.572 13.0687 108.287 12.1931 108.258 11.1712H112.307C112.367 11.7493 112.566 12.1907 112.907 12.4954C113.247 12.8 113.693 12.9511 114.24 12.9511C114.804 12.9511 115.248 12.8216 115.574 12.5625C115.9 12.3035 116.064 11.9436 116.064 11.4831C116.064 11.0969 115.934 10.7778 115.675 10.5259C115.416 10.2741 115.097 10.0654 114.718 9.90225C114.339 9.73913 113.801 9.55442 113.106 9.34573C112.098 9.03388 111.273 8.72204 110.637 8.4102C109.999 8.09835 109.45 7.64018 108.992 7.03089C108.531 6.42399 108.301 5.62999 108.301 4.65128C108.301 3.19761 108.826 2.05817 109.879 1.23538C110.932 0.412592 112.305 0 113.996 0C115.716 0 117.102 0.412592 118.155 1.23538C119.208 2.05817 119.772 3.2048 119.846 4.67287H115.73C115.699 4.16912 115.514 3.77092 115.174 3.48306C114.833 3.19521 114.394 3.04887 113.861 3.04887C113.401 3.04887 113.031 3.17122 112.748 3.4159C112.468 3.66058 112.326 4.01319 112.326 4.47376C112.326 4.97751 112.564 5.37092 113.039 5.65398C113.514 5.93704 114.255 6.23928 115.265 6.56552C116.272 6.90615 117.093 7.23239 117.723 7.54423C118.354 7.85608 118.899 8.30705 119.359 8.90196C119.82 9.49446 120.05 10.2597 120.05 11.1928C120.05 12.0828 119.825 12.8912 119.371 13.618C118.918 14.3448 118.263 14.9229 117.402 15.3523C116.541 15.7817 115.526 15.9976 114.353 15.9976C113.211 15.9976 112.187 15.8129 111.283 15.4411Z" fill="#3BB85D"/>
<path d="M122.785 3.88398C123.452 2.67498 124.383 1.73465 125.578 1.05819C126.772 0.38413 128.125 0.0458984 129.639 0.0458984C131.493 0.0458984 133.079 0.535253 134.4 1.51396C135.72 2.49267 136.603 3.82641 137.049 5.51756H132.865C132.553 4.86509 132.112 4.36854 131.541 4.02791C130.97 3.68728 130.32 3.51696 129.593 3.51696C128.423 3.51696 127.473 3.92476 126.746 4.74035C126.019 5.55595 125.657 6.6474 125.657 8.00992C125.657 9.37484 126.019 10.4639 126.746 11.2795C127.473 12.0951 128.423 12.5029 129.593 12.5029C130.32 12.5029 130.968 12.3326 131.541 11.9919C132.112 11.6513 132.553 11.1547 132.865 10.5023H137.049C136.605 12.1934 135.722 13.5248 134.4 14.4963C133.081 15.4678 131.493 15.9524 129.639 15.9524C128.125 15.9524 126.772 15.6141 125.578 14.9401C124.383 14.266 123.452 13.3281 122.785 12.1263C122.119 10.9245 121.785 9.55235 121.785 8.00992C121.785 6.46989 122.119 5.09298 122.785 3.88398Z" fill="#3BB85D"/>
<path d="M147.393 15.8413L144.145 9.945H143.233V15.8413H139.429V0.222656H145.814C147.045 0.222656 148.096 0.438549 148.962 0.867934C149.83 1.29732 150.478 1.88743 150.909 2.63586C151.339 3.38428 151.555 4.21906 151.555 5.1378C151.555 6.17649 151.262 7.10242 150.674 7.91802C150.089 8.73361 149.225 9.31172 148.084 9.65235L151.687 15.8365H147.393V15.8413ZM143.231 7.25355H145.589C146.287 7.25355 146.81 7.08323 147.158 6.7426C147.505 6.40197 147.681 5.91982 147.681 5.29613C147.681 4.70362 147.505 4.23586 147.158 3.89523C146.81 3.5546 146.287 3.38428 145.589 3.38428H143.231V7.25355Z" fill="#3BB85D"/>
<path d="M157.323 14.9753C156.1 14.294 155.128 13.3393 154.409 12.1159C153.689 10.8925 153.329 9.5156 153.329 7.98996C153.329 6.46192 153.689 5.08981 154.409 3.87361C155.128 2.65742 156.1 1.7075 157.323 1.02624C158.546 0.344979 159.892 0.00195312 161.36 0.00195312C162.828 0.00195312 164.174 0.34258 165.397 1.02624C166.621 1.7099 167.585 2.65742 168.29 3.87361C168.996 5.08981 169.348 6.46192 169.348 7.98996C169.348 9.51799 168.993 10.8925 168.281 12.1159C167.568 13.3393 166.604 14.2916 165.388 14.9753C164.172 15.6565 162.828 15.9996 161.36 15.9996C159.895 15.9972 158.549 15.6565 157.323 14.9753ZM164.354 11.2811C165.102 10.4511 165.477 9.35248 165.477 7.98756C165.477 6.60825 165.102 5.5072 164.354 4.68441C163.606 3.86162 162.608 3.44903 161.363 3.44903C160.101 3.44903 159.096 3.85683 158.347 4.67242C157.599 5.48801 157.225 6.59386 157.225 7.98756C157.225 9.36688 157.599 10.4679 158.347 11.2907C159.096 12.1135 160.101 12.5261 161.363 12.5261C162.608 12.5261 163.606 12.1111 164.354 11.2811Z" fill="#3BB85D"/>
<path d="M192.999 0.225586L188.928 15.8442H184.322L181.83 5.56532L179.249 15.8442H174.643L170.683 0.225586H174.753L177.001 11.5935L179.781 0.225586H183.965L186.635 11.5935L188.904 0.225586H192.999Z" fill="#3BB85D"/>
<path d="M106.19 0.225586H96.624V3.27446H106.19V0.225586Z" fill="#3BB85D"/>
</svg>
