<svg width="28" height="26" viewBox="0 0 28 26" fill="none" xmlns="http://www.w3.org/2000/svg">
<path d="M3.78675 23.1282L0 26V10.8205C0 10.6029 0.0895533 10.3942 0.248959 10.2403C0.408365 10.0864 0.624566 10 0.85 10H16.15C16.3754 10 16.5916 10.0864 16.751 10.2403C16.9104 10.3942 17 10.6029 17 10.8205V22.3077C17 22.5253 16.9104 22.734 16.751 22.8879C16.5916 23.0418 16.3754 23.1282 16.15 23.1282H3.78675ZM4.25 15.7436V17.3846H5.95V15.7436H4.25ZM7.65 15.7436V17.3846H9.35V15.7436H7.65ZM11.05 15.7436V17.3846H12.75V15.7436H11.05Z" fill="black"/>
<rect x="10" width="18" height="18" rx="9" fill="#E73A3A"/>
<path d="M19.2783 12.5V10.652H15.3733V9.574L19.2233 4.305H20.5103V9.574H21.6433V10.652H20.5103V12.5H19.2783ZM16.3303 10.047L16.1213 9.574H19.2783V5.339L19.6303 5.449L16.3303 10.047Z" fill="white"/>
</svg>
