<svg width="18" height="20" viewBox="0 0 18 20" fill="none" xmlns="http://www.w3.org/2000/svg">
<path d="M17.25 12.5881H15.354V19.75H11.9224L8.86681 12.5881H5.49786V19.75H2.61466V12.5881H0.75V11.0524H2.61466V8.82841H0.75V7.27953H2.61466V0.25H6.04629L9.05484 7.27953H12.4708V0.25H15.354V7.27953H17.25V8.82841H15.354V11.0524H17.25V12.5881ZM6.56339 7.27953L5.49786 4.81721V7.27953H6.56339ZM12.4708 11.0524V8.82841H9.6973L10.7001 11.0524H12.4708ZM8.19302 11.0524L7.26852 8.82841H5.49786V11.0524H8.19302ZM12.4708 15.1431V12.5881H11.3426L12.4708 15.1431Z" fill="#11202F"/>
</svg>
