<svg width="103" height="79" viewBox="0 0 103 79" fill="none" xmlns="http://www.w3.org/2000/svg">
<ellipse cx="51.5" cy="45.5" rx="22" ry="2.5" fill="#CFD2D6"/>
<path d="M36.4997 16H66.4997C66.9417 16 67.3656 16.1756 67.6782 16.4882C67.9907 16.8007 68.1663 17.2246 68.1663 17.6667V44.3333C68.1663 44.7754 67.9907 45.1993 67.6782 45.5118C67.3656 45.8244 66.9417 46 66.4997 46H36.4997C36.0576 46 35.6337 45.8244 35.3212 45.5118C35.0086 45.1993 34.833 44.7754 34.833 44.3333V17.6667C34.833 17.2246 35.0086 16.8007 35.3212 16.4882C35.6337 16.1756 36.0576 16 36.4997 16ZM46.4997 31C46.4997 32.3261 47.0265 33.5979 47.9641 34.5355C48.9018 35.4732 50.1736 36 51.4997 36C52.8258 36 54.0975 35.4732 55.0352 34.5355C55.9729 33.5979 56.4997 32.3261 56.4997 31H64.833V19.3333H38.1663V31H46.4997Z" fill="#9FA6AC"/>
<path d="M48.9856 10.6426L50.4765 10.2431L48.5961 0.839695L45.6143 1.63867L48.9856 10.6426Z" fill="#9FA6AC"/>
<path d="M49.9838 13.7959L51.4747 13.3964L50.9999 11.9998L49.4983 12.4931L49.9838 13.7959Z" fill="#9FA6AC"/>
<path d="M1.16655 75V64.57H2.32855L8.30655 72.998L7.80256 73.054V64.57H9.18856V75H8.02656L2.07655 66.516L2.55255 66.46V75H1.16655ZM14.9325 75.168C14.2138 75.168 13.5605 75 12.9725 74.664C12.3845 74.3187 11.9132 73.8473 11.5585 73.25C11.2132 72.6527 11.0405 71.976 11.0405 71.22C11.0405 70.464 11.2132 69.792 11.5585 69.204C11.9038 68.616 12.3705 68.1493 12.9585 67.804C13.5465 67.4587 14.2045 67.286 14.9325 67.286C15.6698 67.286 16.3325 67.4587 16.9205 67.804C17.5085 68.14 17.9705 68.6067 18.3065 69.204C18.6518 69.792 18.8245 70.464 18.8245 71.22C18.8245 71.9853 18.6472 72.6667 18.2925 73.264C17.9378 73.852 17.4665 74.3187 16.8785 74.664C16.2998 75 15.6512 75.168 14.9325 75.168ZM14.9325 73.908C15.4085 73.908 15.8332 73.7913 16.2065 73.558C16.5892 73.3247 16.8878 73.0073 17.1025 72.606C17.3265 72.1953 17.4385 71.7333 17.4385 71.22C17.4385 70.716 17.3265 70.2633 17.1025 69.862C16.8878 69.4513 16.5892 69.134 16.2065 68.91C15.8332 68.6767 15.4085 68.56 14.9325 68.56C14.4658 68.56 14.0412 68.6767 13.6585 68.91C13.2852 69.1433 12.9865 69.4607 12.7625 69.862C12.5385 70.2633 12.4265 70.716 12.4265 71.22C12.4265 71.724 12.5385 72.1813 12.7625 72.592C12.9865 73.0027 13.2852 73.3247 13.6585 73.558C14.0318 73.7913 14.4565 73.908 14.9325 73.908ZM26.3726 75.168C25.6632 75.168 25.0239 74.9953 24.4546 74.65C23.8852 74.3047 23.4372 73.8333 23.1106 73.236C22.7839 72.6387 22.6206 71.9713 22.6206 71.234C22.6206 70.478 22.7839 69.806 23.1106 69.218C23.4466 68.6207 23.8946 68.1493 24.4546 67.804C25.0146 67.4587 25.6539 67.286 26.3726 67.286C26.9886 67.286 27.5392 67.4213 28.0246 67.692C28.5192 67.9533 28.9066 68.308 29.1866 68.756L28.9766 69.078V64.57H30.2926V75H29.0186V73.39L29.1866 73.614C28.9252 74.118 28.5426 74.5053 28.0386 74.776C27.5439 75.0373 26.9886 75.168 26.3726 75.168ZM26.4846 73.908C26.9512 73.908 27.3712 73.7913 27.7446 73.558C28.1272 73.3247 28.4259 73.0073 28.6406 72.606C28.8646 72.1953 28.9766 71.738 28.9766 71.234C28.9766 70.7207 28.8646 70.2633 28.6406 69.862C28.4259 69.4607 28.1272 69.1433 27.7446 68.91C27.3712 68.6767 26.9512 68.56 26.4846 68.56C26.0179 68.56 25.5932 68.6767 25.2106 68.91C24.8372 69.1433 24.5432 69.4607 24.3286 69.862C24.1139 70.2633 24.0066 70.716 24.0066 71.22C24.0066 71.7333 24.1139 72.1953 24.3286 72.606C24.5432 73.0073 24.8372 73.3247 25.2106 73.558C25.5839 73.7913 26.0086 73.908 26.4846 73.908ZM35.7798 75.168C35.0518 75.168 34.3985 74.9953 33.8198 74.65C33.2505 74.3047 32.8025 73.8333 32.4758 73.236C32.1491 72.6293 31.9858 71.9527 31.9858 71.206C31.9858 70.45 32.1491 69.778 32.4758 69.19C32.8025 68.602 33.2411 68.14 33.7918 67.804C34.3425 67.4587 34.9678 67.286 35.6678 67.286C36.2278 67.286 36.7225 67.3887 37.1518 67.594C37.5905 67.79 37.9591 68.0607 38.2578 68.406C38.5658 68.742 38.7991 69.1293 38.9578 69.568C39.1258 69.9973 39.2098 70.4453 39.2098 70.912C39.2098 71.024 39.2005 71.1407 39.1818 71.262C39.1725 71.3833 39.1585 71.5047 39.1398 71.626H32.9518V70.492H38.3838L37.7538 70.996C37.8471 70.5107 37.8051 70.0767 37.6278 69.694C37.4505 69.3113 37.1891 69.008 36.8438 68.784C36.4985 68.56 36.1065 68.448 35.6678 68.448C35.2291 68.448 34.8278 68.5647 34.4638 68.798C34.0998 69.022 33.8151 69.3393 33.6098 69.75C33.4138 70.1607 33.3345 70.6507 33.3718 71.22C33.3345 71.7707 33.4185 72.256 33.6238 72.676C33.8385 73.0867 34.1371 73.4087 34.5198 73.642C34.9118 73.866 35.3365 73.978 35.7938 73.978C36.2978 73.978 36.7225 73.8613 37.0678 73.628C37.4131 73.3947 37.6931 73.096 37.9078 72.732L38.9998 73.292C38.8505 73.6373 38.6171 73.9547 38.2998 74.244C37.9918 74.524 37.6231 74.748 37.1938 74.916C36.7645 75.084 36.2931 75.168 35.7798 75.168ZM40.8934 77.8V67.454H42.1814V69.078L42.0134 68.756C42.2934 68.308 42.6761 67.9533 43.1614 67.692C43.6467 67.4213 44.2021 67.286 44.8274 67.286C45.5367 67.286 46.1714 67.4587 46.7314 67.804C47.3007 68.1493 47.7487 68.6207 48.0754 69.218C48.4021 69.806 48.5654 70.4733 48.5654 71.22C48.5654 71.9667 48.4021 72.6387 48.0754 73.236C47.7487 73.8333 47.3007 74.3047 46.7314 74.65C46.1714 74.9953 45.5321 75.168 44.8134 75.168C44.2067 75.168 43.6514 75.0373 43.1474 74.776C42.6527 74.5053 42.2701 74.118 41.9994 73.614L42.2094 73.39V77.8H40.8934ZM44.7154 73.908C45.1914 73.908 45.6114 73.7913 45.9754 73.558C46.3487 73.3247 46.6427 73.0073 46.8574 72.606C47.0721 72.1953 47.1794 71.7333 47.1794 71.22C47.1794 70.716 47.0721 70.2633 46.8574 69.862C46.6427 69.4607 46.3487 69.1433 45.9754 68.91C45.6114 68.6767 45.1867 68.56 44.7014 68.56C44.2347 68.56 43.8101 68.6767 43.4274 68.91C43.0541 69.1433 42.7554 69.4607 42.5314 69.862C42.3167 70.2633 42.2094 70.7207 42.2094 71.234C42.2094 71.738 42.3167 72.1953 42.5314 72.606C42.7554 73.0073 43.0541 73.3247 43.4274 73.558C43.8101 73.7913 44.2394 73.908 44.7154 73.908ZM53.8426 75.168C53.124 75.168 52.4706 75 51.8826 74.664C51.2946 74.3187 50.8233 73.8473 50.4686 73.25C50.1233 72.6527 49.9506 71.976 49.9506 71.22C49.9506 70.464 50.1233 69.792 50.4686 69.204C50.814 68.616 51.2806 68.1493 51.8686 67.804C52.4566 67.4587 53.1146 67.286 53.8426 67.286C54.58 67.286 55.2426 67.4587 55.8306 67.804C56.4186 68.14 56.8806 68.6067 57.2166 69.204C57.562 69.792 57.7346 70.464 57.7346 71.22C57.7346 71.9853 57.5573 72.6667 57.2026 73.264C56.848 73.852 56.3766 74.3187 55.7886 74.664C55.21 75 54.5613 75.168 53.8426 75.168ZM53.8426 73.908C54.3186 73.908 54.7433 73.7913 55.1166 73.558C55.4993 73.3247 55.798 73.0073 56.0126 72.606C56.2366 72.1953 56.3486 71.7333 56.3486 71.22C56.3486 70.716 56.2366 70.2633 56.0126 69.862C55.798 69.4513 55.4993 69.134 55.1166 68.91C54.7433 68.6767 54.3186 68.56 53.8426 68.56C53.376 68.56 52.9513 68.6767 52.5686 68.91C52.1953 69.1433 51.8966 69.4607 51.6726 69.862C51.4486 70.2633 51.3366 70.716 51.3366 71.22C51.3366 71.724 51.4486 72.1813 51.6726 72.592C51.8966 73.0027 52.1953 73.3247 52.5686 73.558C52.942 73.7913 53.3666 73.908 53.8426 73.908ZM62.1348 75.168C61.3788 75.168 60.7208 74.9813 60.1608 74.608C59.6008 74.2347 59.1995 73.7307 58.9568 73.096L60.0068 72.592C60.2215 73.04 60.5155 73.3947 60.8888 73.656C61.2621 73.9173 61.6775 74.048 62.1348 74.048C62.5361 74.048 62.8721 73.95 63.1428 73.754C63.4135 73.558 63.5488 73.3013 63.5488 72.984C63.5488 72.76 63.4835 72.5827 63.3528 72.452C63.2315 72.312 63.0821 72.2047 62.9048 72.13C62.7368 72.046 62.5735 71.9853 62.4148 71.948L61.2808 71.626C60.6088 71.4393 60.1141 71.164 59.7968 70.8C59.4888 70.4267 59.3348 69.9973 59.3348 69.512C59.3348 69.064 59.4468 68.6767 59.6708 68.35C59.9041 68.014 60.2168 67.7527 60.6088 67.566C61.0101 67.3793 61.4581 67.286 61.9528 67.286C62.6155 67.286 63.2081 67.454 63.7308 67.79C64.2628 68.126 64.6408 68.5973 64.8648 69.204L63.8008 69.694C63.6328 69.302 63.3808 68.994 63.0448 68.77C62.7088 68.546 62.3308 68.434 61.9108 68.434C61.5281 68.434 61.2248 68.5273 61.0008 68.714C60.7768 68.9007 60.6648 69.1433 60.6648 69.442C60.6648 69.6473 60.7208 69.82 60.8328 69.96C60.9448 70.0907 61.0801 70.1933 61.2388 70.268C61.3975 70.3333 61.5515 70.3893 61.7008 70.436L62.9328 70.8C63.5488 70.9773 64.0248 71.2527 64.3608 71.626C64.7061 71.9993 64.8788 72.4473 64.8788 72.97C64.8788 73.39 64.7621 73.768 64.5288 74.104C64.2955 74.44 63.9735 74.7013 63.5628 74.888C63.1521 75.0747 62.6761 75.168 62.1348 75.168ZM66.5692 75V67.454H67.8852V75H66.5692ZM66.5692 66.25V64.57H67.8852V66.25H66.5692ZM72.9715 75.084C72.2341 75.084 71.6648 74.874 71.2635 74.454C70.8621 74.034 70.6615 73.4413 70.6615 72.676V68.7H69.3035V67.454H69.5835C69.9195 67.454 70.1808 67.3513 70.3675 67.146C70.5635 66.9407 70.6615 66.67 70.6615 66.334V65.718H71.9775V67.454H73.6715V68.7H71.9775V72.634C71.9775 72.886 72.0148 73.1053 72.0895 73.292C72.1735 73.4787 72.3088 73.628 72.4955 73.74C72.6821 73.8427 72.9295 73.894 73.2375 73.894C73.3028 73.894 73.3821 73.8893 73.4755 73.88C73.5781 73.8707 73.6715 73.8613 73.7555 73.852V75.014C73.6341 75.042 73.4988 75.0607 73.3495 75.07C73.2001 75.0793 73.0741 75.084 72.9715 75.084ZM78.2822 78.094C78.1142 78.094 77.9462 78.08 77.7782 78.052C77.6102 78.024 77.4515 77.9773 77.3022 77.912V76.75C77.4048 76.7593 77.5308 76.778 77.6802 76.806C77.8388 76.834 77.9928 76.848 78.1422 76.848C78.5808 76.848 78.9122 76.75 79.1362 76.554C79.3695 76.358 79.5888 76.0267 79.7942 75.56L80.2702 74.426L80.2422 75.56L77.0222 67.454H78.4362L80.9422 73.894H80.5222L83.0142 67.454H84.4562L81.0542 75.896C80.8955 76.2973 80.6902 76.666 80.4382 77.002C80.1955 77.338 79.8968 77.604 79.5422 77.8C79.1875 77.996 78.7675 78.094 78.2822 78.094ZM88.9497 75.168C88.2217 75.168 87.5684 74.9953 86.9897 74.65C86.4204 74.3047 85.9724 73.8333 85.6457 73.236C85.3191 72.6293 85.1557 71.9527 85.1557 71.206C85.1557 70.45 85.3191 69.778 85.6457 69.19C85.9724 68.602 86.4111 68.14 86.9617 67.804C87.5124 67.4587 88.1377 67.286 88.8377 67.286C89.3977 67.286 89.8924 67.3887 90.3217 67.594C90.7604 67.79 91.1291 68.0607 91.4277 68.406C91.7357 68.742 91.9691 69.1293 92.1277 69.568C92.2957 69.9973 92.3797 70.4453 92.3797 70.912C92.3797 71.024 92.3704 71.1407 92.3517 71.262C92.3424 71.3833 92.3284 71.5047 92.3097 71.626H86.1217V70.492H91.5537L90.9237 70.996C91.0171 70.5107 90.9751 70.0767 90.7977 69.694C90.6204 69.3113 90.3591 69.008 90.0137 68.784C89.6684 68.56 89.2764 68.448 88.8377 68.448C88.3991 68.448 87.9977 68.5647 87.6337 68.798C87.2697 69.022 86.9851 69.3393 86.7797 69.75C86.5837 70.1607 86.5044 70.6507 86.5417 71.22C86.5044 71.7707 86.5884 72.256 86.7937 72.676C87.0084 73.0867 87.3071 73.4087 87.6897 73.642C88.0817 73.866 88.5064 73.978 88.9637 73.978C89.4677 73.978 89.8924 73.8613 90.2377 73.628C90.5831 73.3947 90.8631 73.096 91.0777 72.732L92.1697 73.292C92.0204 73.6373 91.7871 73.9547 91.4697 74.244C91.1617 74.524 90.7931 74.748 90.3637 74.916C89.9344 75.084 89.4631 75.168 88.9497 75.168ZM97.1433 75.084C96.406 75.084 95.8367 74.874 95.4353 74.454C95.034 74.034 94.8333 73.4413 94.8333 72.676V68.7H93.4753V67.454H93.7553C94.0913 67.454 94.3527 67.3513 94.5393 67.146C94.7353 66.9407 94.8333 66.67 94.8333 66.334V65.718H96.1493V67.454H97.8433V68.7H96.1493V72.634C96.1493 72.886 96.1867 73.1053 96.2613 73.292C96.3453 73.4787 96.4807 73.628 96.6673 73.74C96.854 73.8427 97.1013 73.894 97.4093 73.894C97.4747 73.894 97.554 73.8893 97.6473 73.88C97.75 73.8707 97.8433 73.8613 97.9273 73.852V75.014C97.806 75.042 97.6707 75.0607 97.5213 75.07C97.372 75.0793 97.246 75.084 97.1433 75.084ZM100.202 71.948L100.118 64.57H101.49L101.392 71.948H100.202ZM100.118 75V73.32H101.49V75H100.118Z" fill="#707983"/>
</svg>
