<svg width="46" height="12" viewBox="0 0 46 12" fill="none" xmlns="http://www.w3.org/2000/svg">
<g clip-path="url(#clip0_909_9208)">
<path d="M6.37253 0.0011282H2.86997C2.63025 0.0011282 2.42643 0.175305 2.38903 0.411993L0.972428 9.3935C0.944253 9.57064 1.08154 9.73047 1.26127 9.73047H2.93345C3.17313 9.73047 3.37695 9.55637 3.41435 9.31924L3.79641 6.89681C3.8333 6.65963 4.03762 6.48549 4.2768 6.48549H5.38561C7.69284 6.48549 9.02441 5.36901 9.3722 3.15653C9.52889 2.18856 9.37883 1.42804 8.92557 0.895412C8.42777 0.310479 7.54482 0.0011282 6.37253 0.0011282ZM6.77663 3.28151C6.58508 4.53833 5.62479 4.53833 4.69626 4.53833H4.16773L4.53851 2.19116C4.56056 2.04927 4.68344 1.9448 4.82687 1.9448H5.06909C5.70159 1.9448 6.29827 1.9448 6.60656 2.30531C6.79044 2.52044 6.84679 2.84001 6.77663 3.28151Z" fill="#283B82"/>
<path d="M16.8423 3.24067H15.1651C15.0222 3.24067 14.8988 3.34515 14.8767 3.48703L14.8025 3.95615L14.6852 3.7861C14.3221 3.25908 13.5123 3.08294 12.7041 3.08294C10.8507 3.08294 9.26765 4.48673 8.95935 6.45593C8.79906 7.43822 9.02697 8.37751 9.58417 9.03251C10.0953 9.63479 10.8266 9.88574 11.6968 9.88574C13.1902 9.88574 14.0184 8.92553 14.0184 8.92553L13.9436 9.39157C13.9154 9.5698 14.0527 9.72958 14.2315 9.72958H15.7422C15.9824 9.72958 16.1852 9.55544 16.2232 9.31835L17.1296 3.57765C17.1584 3.40096 17.0216 3.24067 16.8423 3.24067ZM14.5044 6.50511C14.3426 7.4633 13.582 8.10662 12.612 8.10662C12.125 8.10662 11.7357 7.95038 11.4858 7.65435C11.2379 7.36038 11.1436 6.94196 11.2225 6.47588C11.3736 5.52586 12.147 4.86164 13.1021 4.86164C13.5784 4.86164 13.9656 5.01988 14.2207 5.31841C14.4763 5.62007 14.5776 6.04107 14.5044 6.50511Z" fill="#283B82"/>
<path d="M25.7756 3.24067H24.0901C23.9293 3.24067 23.7782 3.32057 23.687 3.45427L21.3624 6.87848L20.377 3.58793C20.3151 3.38201 20.1251 3.24067 19.91 3.24067H18.2537C18.0524 3.24067 17.9126 3.43732 17.9766 3.62682L19.8331 9.07505L18.0877 11.539C17.9504 11.7331 18.0887 12 18.3259 12H20.0094C20.1691 12 20.3187 11.9221 20.4093 11.791L26.0152 3.69908C26.1494 3.50544 26.0117 3.24067 25.7756 3.24067Z" fill="#283B82"/>
<path d="M31.3559 0.0011282H27.8528C27.6137 0.0011282 27.4098 0.175305 27.3724 0.411993L25.9558 9.3935C25.9277 9.57064 26.0649 9.73047 26.2437 9.73047H28.0413C28.2082 9.73047 28.3512 9.60863 28.3773 9.44267L28.7793 6.89681C28.8162 6.65963 29.0206 6.48549 29.2597 6.48549H30.368C32.6757 6.48549 34.0068 5.36901 34.3551 3.15653C34.5124 2.18856 34.3613 1.42804 33.908 0.895412C33.4107 0.310479 32.5282 0.0011282 31.3559 0.0011282ZM31.7601 3.28151C31.569 4.53833 30.6088 4.53833 29.6797 4.53833H29.1517L29.523 2.19116C29.545 2.04927 29.6668 1.9448 29.8108 1.9448H30.053C30.6851 1.9448 31.2822 1.9448 31.5905 2.30531C31.7744 2.52044 31.8302 2.84001 31.7601 3.28151Z" fill="#469BDB"/>
<path d="M41.8246 3.24067H40.1483C40.0044 3.24067 39.8819 3.34515 39.8604 3.48703L39.7862 3.95615L39.6684 3.7861C39.3053 3.25908 38.4961 3.08294 37.6879 3.08294C35.8344 3.08294 34.252 4.48673 33.9436 6.45593C33.7838 7.43822 34.0107 8.37751 34.5679 9.03251C35.0801 9.63479 35.8104 9.88574 36.6805 9.88574C38.1739 9.88574 39.0021 8.92553 39.0021 8.92553L38.9273 9.39157C38.8992 9.5698 39.0364 9.72958 39.2162 9.72958H40.7265C40.9657 9.72958 41.1695 9.55544 41.2069 9.31835L42.1139 3.57765C42.1415 3.40096 42.0043 3.24067 41.8246 3.24067ZM39.4865 6.50511C39.3257 7.4633 38.5642 8.10662 37.5942 8.10662C37.1081 8.10662 36.7179 7.95038 36.468 7.65435C36.2202 7.36038 36.1269 6.94196 36.2048 6.47588C36.3568 5.52586 37.1292 4.86164 38.0844 4.86164C38.5606 4.86164 38.9478 5.01988 39.2028 5.31841C39.4594 5.62007 39.5608 6.04107 39.4865 6.50511Z" fill="#469BDB"/>
<path d="M43.8026 0.247542L42.365 9.3935C42.3369 9.57064 42.4741 9.73047 42.6529 9.73047H44.0981C44.3383 9.73047 44.5422 9.55637 44.5791 9.31924L45.9966 0.338264C46.0248 0.160989 45.8876 0.000703812 45.7089 0.000703812H44.0904C43.9475 0.00113106 43.8247 0.105743 43.8026 0.247542Z" fill="#469BDB"/>
</g>
<defs>
<clipPath id="clip0_909_9208">
<rect width="45.0315" height="12" fill="white" transform="translate(0.96875)"/>
</clipPath>
</defs>
</svg>
