<svg width="14" height="19" viewBox="0 0 14 19" fill="none" xmlns="http://www.w3.org/2000/svg">
<path d="M13.6663 18.3335H11.9997V16.6668C11.9997 16.0038 11.7363 15.3679 11.2674 14.8991C10.7986 14.4302 10.1627 14.1668 9.49967 14.1668H4.49967C3.83663 14.1668 3.20075 14.4302 2.73191 14.8991C2.26307 15.3679 1.99967 16.0038 1.99967 16.6668V18.3335H0.333008V16.6668C0.333008 15.5618 0.771995 14.502 1.5534 13.7206C2.3348 12.9391 3.39461 12.5002 4.49967 12.5002H9.49967C10.6047 12.5002 11.6646 12.9391 12.446 13.7206C13.2274 14.502 13.6663 15.5618 13.6663 16.6668V18.3335ZM6.99967 10.8335C6.34306 10.8335 5.69288 10.7042 5.08626 10.4529C4.47963 10.2016 3.92843 9.83332 3.46414 9.36903C2.99985 8.90474 2.63155 8.35354 2.38028 7.74691C2.129 7.14029 1.99967 6.49011 1.99967 5.8335C1.99967 5.17689 2.129 4.52671 2.38028 3.92008C2.63155 3.31345 2.99985 2.76226 3.46414 2.29796C3.92843 1.83367 4.47963 1.46537 5.08626 1.2141C5.69288 0.962825 6.34306 0.833496 6.99967 0.833496C8.32576 0.833496 9.59753 1.36028 10.5352 2.29796C11.4729 3.23564 11.9997 4.50741 11.9997 5.8335C11.9997 7.15958 11.4729 8.43135 10.5352 9.36903C9.59753 10.3067 8.32576 10.8335 6.99967 10.8335ZM6.99967 9.16683C7.88373 9.16683 8.73158 8.81564 9.3567 8.19052C9.98182 7.5654 10.333 6.71755 10.333 5.8335C10.333 4.94944 9.98182 4.10159 9.3567 3.47647C8.73158 2.85135 7.88373 2.50016 6.99967 2.50016C6.11562 2.50016 5.26777 2.85135 4.64265 3.47647C4.01753 4.10159 3.66634 4.94944 3.66634 5.8335C3.66634 6.71755 4.01753 7.5654 4.64265 8.19052C5.26777 8.81564 6.11562 9.16683 6.99967 9.16683Z" fill="#58636E"/>
</svg>
