<svg width="24" height="24" viewBox="0 0 24 24" fill="none" xmlns="http://www.w3.org/2000/svg">
<path d="M0.333008 12.0002C0.333008 10.991 0.461341 10.0134 0.701674 9.07886C1.34622 9.11274 1.98758 8.96774 2.55486 8.65987C3.12213 8.35201 3.59323 7.89328 3.91608 7.3344C4.23893 6.77551 4.40095 6.13824 4.38423 5.49302C4.36751 4.8478 4.1727 4.21977 3.82134 3.67836C5.23177 2.29069 6.97227 1.28494 8.87884 0.755859C9.17166 1.33158 9.61808 1.81504 10.1687 2.15272C10.7193 2.4904 11.3526 2.66914 11.9985 2.66914C12.6444 2.66914 13.2777 2.4904 13.8283 2.15272C14.3789 1.81504 14.8254 1.33158 15.1182 0.755859C17.0247 1.28494 18.7652 2.29069 20.1757 3.67836C19.8239 4.21987 19.6288 4.84814 19.612 5.49365C19.5951 6.13916 19.7572 6.77675 20.0802 7.33587C20.4033 7.895 20.8747 8.35385 21.4423 8.66168C22.01 8.9695 22.6517 9.11429 23.2965 9.08003C23.5368 10.0134 23.6652 10.991 23.6652 12.0002C23.6652 13.0094 23.5368 13.987 23.2965 14.9215C22.6519 14.8874 22.0104 15.0323 21.4429 15.34C20.8754 15.6478 20.4042 16.1065 20.0812 16.6654C19.7582 17.2244 19.5961 17.8617 19.6127 18.5071C19.6294 19.1524 19.8242 19.7805 20.1757 20.322C18.7652 21.7097 17.0247 22.7155 15.1182 23.2445C14.8254 22.6688 14.3789 22.1853 13.8283 21.8477C13.2777 21.51 12.6444 21.3312 11.9985 21.3312C11.3526 21.3312 10.7193 21.51 10.1687 21.8477C9.61808 22.1853 9.17166 22.6688 8.87884 23.2445C6.97227 22.7155 5.23177 21.7097 3.82134 20.322C4.1731 19.7805 4.36819 19.1522 4.38504 18.5067C4.40188 17.8612 4.23982 17.2236 3.91679 16.6645C3.59375 16.1054 3.12234 15.6465 2.5547 15.3387C1.98706 15.0309 1.34533 14.8861 0.700508 14.9204C0.461341 13.9882 0.333008 13.0105 0.333008 12.0002ZM5.93767 15.5002C6.67267 16.773 6.88267 18.2372 6.59567 19.6115C7.07167 19.9499 7.57801 20.2427 8.10884 20.4865C9.17829 19.5285 10.5639 18.9992 11.9997 19.0002C13.4697 19.0002 14.844 19.5497 15.8905 20.4865C16.4213 20.2427 16.9277 19.9499 17.4037 19.6115C17.109 18.2068 17.3433 16.7428 18.0617 15.5002C18.7787 14.257 19.9295 13.3222 21.2933 12.8752C21.3473 12.2931 21.3473 11.7073 21.2933 11.1252C19.9291 10.6784 18.7779 9.74365 18.0605 8.50019C17.3422 7.25761 17.1078 5.79357 17.4025 4.38886C16.9266 4.05044 16.42 3.75748 15.8893 3.51386C14.8202 4.47161 13.4351 5.0009 11.9997 5.00019C10.5639 5.00119 9.17829 4.47188 8.10884 3.51386C7.57816 3.75749 7.07154 4.05044 6.59567 4.38886C6.89033 5.79357 6.65602 7.25761 5.93767 8.50019C5.22061 9.74342 4.06982 10.6782 2.70601 11.1252C2.65205 11.7073 2.65205 12.2931 2.70601 12.8752C4.07025 13.322 5.22149 14.2567 5.93884 15.5002H5.93767ZM11.9997 15.5002C11.0714 15.5002 10.1812 15.1314 9.5248 14.4751C8.86842 13.8187 8.49967 12.9285 8.49967 12.0002C8.49967 11.0719 8.86842 10.1817 9.5248 9.52532C10.1812 8.86894 11.0714 8.50019 11.9997 8.50019C12.9279 8.50019 13.8182 8.86894 14.4745 9.52532C15.1309 10.1817 15.4997 11.0719 15.4997 12.0002C15.4997 12.9285 15.1309 13.8187 14.4745 14.4751C13.8182 15.1314 12.9279 15.5002 11.9997 15.5002ZM11.9997 13.1669C12.3091 13.1669 12.6058 13.0439 12.8246 12.8252C13.0434 12.6064 13.1663 12.3096 13.1663 12.0002C13.1663 11.6908 13.0434 11.394 12.8246 11.1752C12.6058 10.9564 12.3091 10.8335 11.9997 10.8335C11.6903 10.8335 11.3935 10.9564 11.1747 11.1752C10.9559 11.394 10.833 11.6908 10.833 12.0002C10.833 12.3096 10.9559 12.6064 11.1747 12.8252C11.3935 13.0439 11.6903 13.1669 11.9997 13.1669V13.1669Z" fill="white"/>
</svg>
