<svg width="20" height="11" viewBox="0 0 20 11" fill="none" xmlns="http://www.w3.org/2000/svg">
<path d="M7.78547 10.6516L6.1763 10.22L6.83214 7.7708C5.85044 7.40874 4.93807 6.8811 4.13464 6.2108L2.34047 8.0058L1.1613 6.82663L2.9563 5.03247C1.94303 3.81893 1.26221 2.3631 0.980469 0.807467L2.62047 0.508301C3.25297 4.00997 6.3163 6.66663 10.0005 6.66663C13.6838 6.66663 16.748 4.00997 17.3805 0.508301L19.0205 0.806634C18.7391 2.36248 18.0586 3.81861 17.0455 5.03247L18.8396 6.82663L17.6605 8.0058L15.8663 6.2108C15.0629 6.8811 14.1505 7.40874 13.1688 7.7708L13.8246 10.2208L12.2155 10.6516L11.5588 8.20163C10.5274 8.37837 9.47351 8.37837 8.44214 8.20163L7.78547 10.6516Z" fill="#404D58"/>
</svg>
