<svg width="292" height="108" viewBox="0 0 292 108" fill="none" xmlns="http://www.w3.org/2000/svg">
<ellipse opacity="0.25" cx="146" cy="69" rx="44" ry="5" fill="#E73A3A"/>
<path d="M176 53.3333L159.323 70H119.327C118.447 70.0018 117.602 69.6541 116.978 69.0335C116.355 68.4128 116.003 67.5699 116 66.69V13.31C116 11.4833 117.483 10 119.31 10H172.69C174.517 10 176 11.49 176 13.33V53.3333Z" fill="url(#paint0_linear_711_16192)"/>
<path d="M137 48C144.077 40.9706 148.044 37.0294 155.121 30" stroke="url(#paint1_linear_711_16192)" stroke-width="6"/>
<path d="M137.061 29.9395C144.09 37.0162 148.031 40.9839 155.061 48.0607" stroke="url(#paint2_linear_711_16192)" stroke-width="6"/>
<path d="M0.317832 104L4.24783 92.825H6.43783L10.3678 104H8.47783L7.62283 101.495H3.07783L2.20783 104H0.317832ZM3.58783 99.92H7.08283L5.10283 94.07H5.59783L3.58783 99.92ZM11.5286 104V95.885H13.1486V97.52L12.9986 97.28C13.1786 96.75 13.4686 96.37 13.8686 96.14C14.2686 95.9 14.7486 95.78 15.3086 95.78H15.8036V97.325H15.0986C14.5386 97.325 14.0836 97.5 13.7336 97.85C13.3936 98.19 13.2236 98.68 13.2236 99.32V104H11.5286ZM20.7731 104.18C19.9631 104.18 19.2431 103.995 18.6131 103.625C17.9931 103.245 17.5081 102.735 17.1581 102.095C16.8081 101.445 16.6331 100.72 16.6331 99.92C16.6331 99.1 16.8081 98.375 17.1581 97.745C17.5181 97.115 17.9981 96.62 18.5981 96.26C19.1981 95.89 19.8781 95.705 20.6381 95.705C21.2481 95.705 21.7931 95.81 22.2731 96.02C22.7531 96.23 23.1581 96.52 23.4881 96.89C23.8181 97.25 24.0681 97.665 24.2381 98.135C24.4181 98.605 24.5081 99.105 24.5081 99.635C24.5081 99.765 24.5031 99.9 24.4931 100.04C24.4831 100.18 24.4631 100.31 24.4331 100.43H17.9681V99.08H23.4731L22.6631 99.695C22.7631 99.205 22.7281 98.77 22.5581 98.39C22.3981 98 22.1481 97.695 21.8081 97.475C21.4781 97.245 21.0881 97.13 20.6381 97.13C20.1881 97.13 19.7881 97.245 19.4381 97.475C19.0881 97.695 18.8181 98.015 18.6281 98.435C18.4381 98.845 18.3631 99.345 18.4031 99.935C18.3531 100.485 18.4281 100.965 18.6281 101.375C18.8381 101.785 19.1281 102.105 19.4981 102.335C19.8781 102.565 20.3081 102.68 20.7881 102.68C21.2781 102.68 21.6931 102.57 22.0331 102.35C22.3831 102.13 22.6581 101.845 22.8581 101.495L24.2381 102.17C24.0781 102.55 23.8281 102.895 23.4881 103.205C23.1581 103.505 22.7581 103.745 22.2881 103.925C21.8281 104.095 21.3231 104.18 20.7731 104.18ZM29.5044 107.315C29.3044 107.315 29.1044 107.295 28.9044 107.255C28.7144 107.225 28.5394 107.175 28.3794 107.105V105.65C28.4994 105.68 28.6444 105.705 28.8144 105.725C28.9844 105.755 29.1494 105.77 29.3094 105.77C29.7794 105.77 30.1244 105.665 30.3444 105.455C30.5744 105.255 30.7794 104.94 30.9594 104.51L31.4994 103.28L31.4694 104.705L27.9594 95.885H29.7744L32.3694 102.65H31.7544L34.3344 95.885H36.1644L32.5794 104.885C32.3894 105.365 32.1494 105.785 31.8594 106.145C31.5794 106.515 31.2444 106.8 30.8544 107C30.4744 107.21 30.0244 107.315 29.5044 107.315ZM41.093 104.18C40.313 104.18 39.598 103.995 38.948 103.625C38.308 103.255 37.798 102.75 37.418 102.11C37.038 101.47 36.848 100.745 36.848 99.935C36.848 99.115 37.038 98.39 37.418 97.76C37.798 97.12 38.308 96.62 38.948 96.26C39.588 95.89 40.303 95.705 41.093 95.705C41.893 95.705 42.608 95.89 43.238 96.26C43.878 96.62 44.383 97.12 44.753 97.76C45.133 98.39 45.323 99.115 45.323 99.935C45.323 100.755 45.133 101.485 44.753 102.125C44.373 102.765 43.863 103.27 43.223 103.64C42.583 104 41.873 104.18 41.093 104.18ZM41.093 102.605C41.573 102.605 41.998 102.49 42.368 102.26C42.738 102.03 43.028 101.715 43.238 101.315C43.458 100.905 43.568 100.445 43.568 99.935C43.568 99.425 43.458 98.97 43.238 98.57C43.028 98.17 42.738 97.855 42.368 97.625C41.998 97.395 41.573 97.28 41.093 97.28C40.623 97.28 40.198 97.395 39.818 97.625C39.448 97.855 39.153 98.17 38.933 98.57C38.723 98.97 38.618 99.425 38.618 99.935C38.618 100.445 38.723 100.905 38.933 101.315C39.153 101.715 39.448 102.03 39.818 102.26C40.198 102.49 40.623 102.605 41.093 102.605ZM49.8728 104.18C49.2628 104.18 48.7278 104.045 48.2678 103.775C47.8078 103.495 47.4478 103.11 47.1878 102.62C46.9378 102.12 46.8128 101.545 46.8128 100.895V95.885H48.5078V100.745C48.5078 101.115 48.5828 101.44 48.7328 101.72C48.8828 102 49.0928 102.22 49.3628 102.38C49.6328 102.53 49.9428 102.605 50.2928 102.605C50.6528 102.605 50.9678 102.525 51.2378 102.365C51.5078 102.205 51.7178 101.98 51.8678 101.69C52.0278 101.4 52.1078 101.06 52.1078 100.67V95.885H53.7878V104H52.1828V102.41L52.3628 102.62C52.1728 103.12 51.8578 103.505 51.4178 103.775C50.9778 104.045 50.4628 104.18 49.8728 104.18ZM61.3889 104.18C60.5589 104.18 59.8289 103.975 59.1989 103.565C58.5789 103.155 58.1439 102.605 57.8939 101.915L59.1989 101.3C59.4189 101.76 59.7189 102.125 60.0989 102.395C60.4889 102.665 60.9189 102.8 61.3889 102.8C61.7889 102.8 62.1139 102.71 62.3639 102.53C62.6139 102.35 62.7389 102.105 62.7389 101.795C62.7389 101.595 62.6839 101.435 62.5739 101.315C62.4639 101.185 62.3239 101.08 62.1539 101C61.9939 100.92 61.8289 100.86 61.6589 100.82L60.3839 100.46C59.6839 100.26 59.1589 99.96 58.8089 99.56C58.4689 99.15 58.2989 98.675 58.2989 98.135C58.2989 97.645 58.4239 97.22 58.6739 96.86C58.9239 96.49 59.2689 96.205 59.7089 96.005C60.1489 95.805 60.6439 95.705 61.1939 95.705C61.9339 95.705 62.5939 95.89 63.1739 96.26C63.7539 96.62 64.1639 97.125 64.4039 97.775L63.0989 98.39C62.9389 98 62.6839 97.69 62.3339 97.46C61.9939 97.23 61.6089 97.115 61.1789 97.115C60.8089 97.115 60.5139 97.205 60.2939 97.385C60.0739 97.555 59.9639 97.78 59.9639 98.06C59.9639 98.25 60.0139 98.41 60.1139 98.54C60.2139 98.66 60.3439 98.76 60.5039 98.84C60.6639 98.91 60.8289 98.97 60.9989 99.02L62.3189 99.41C62.9889 99.6 63.5039 99.9 63.8639 100.31C64.2239 100.71 64.4039 101.19 64.4039 101.75C64.4039 102.23 64.2739 102.655 64.0139 103.025C63.7639 103.385 63.4139 103.67 62.9639 103.88C62.5139 104.08 61.9889 104.18 61.3889 104.18ZM68.9597 104.18C68.3497 104.18 67.8147 104.045 67.3547 103.775C66.8947 103.495 66.5347 103.11 66.2747 102.62C66.0247 102.12 65.8997 101.545 65.8997 100.895V95.885H67.5947V100.745C67.5947 101.115 67.6697 101.44 67.8197 101.72C67.9697 102 68.1797 102.22 68.4497 102.38C68.7197 102.53 69.0297 102.605 69.3797 102.605C69.7397 102.605 70.0547 102.525 70.3247 102.365C70.5947 102.205 70.8047 101.98 70.9547 101.69C71.1147 101.4 71.1947 101.06 71.1947 100.67V95.885H72.8747V104H71.2697V102.41L71.4497 102.62C71.2597 103.12 70.9447 103.505 70.5047 103.775C70.0647 104.045 69.5497 104.18 68.9597 104.18ZM74.8538 104V95.885H76.4738V97.52L76.3238 97.28C76.5038 96.75 76.7938 96.37 77.1938 96.14C77.5938 95.9 78.0738 95.78 78.6338 95.78H79.1288V97.325H78.4238C77.8638 97.325 77.4088 97.5 77.0588 97.85C76.7188 98.19 76.5488 98.68 76.5488 99.32V104H74.8538ZM84.0983 104.18C83.2883 104.18 82.5683 103.995 81.9383 103.625C81.3183 103.245 80.8333 102.735 80.4833 102.095C80.1333 101.445 79.9583 100.72 79.9583 99.92C79.9583 99.1 80.1333 98.375 80.4833 97.745C80.8433 97.115 81.3233 96.62 81.9233 96.26C82.5233 95.89 83.2033 95.705 83.9633 95.705C84.5733 95.705 85.1183 95.81 85.5983 96.02C86.0783 96.23 86.4833 96.52 86.8133 96.89C87.1433 97.25 87.3933 97.665 87.5633 98.135C87.7433 98.605 87.8333 99.105 87.8333 99.635C87.8333 99.765 87.8283 99.9 87.8183 100.04C87.8083 100.18 87.7883 100.31 87.7583 100.43H81.2933V99.08H86.7983L85.9883 99.695C86.0883 99.205 86.0533 98.77 85.8833 98.39C85.7233 98 85.4733 97.695 85.1333 97.475C84.8033 97.245 84.4133 97.13 83.9633 97.13C83.5133 97.13 83.1133 97.245 82.7633 97.475C82.4133 97.695 82.1433 98.015 81.9533 98.435C81.7633 98.845 81.6883 99.345 81.7283 99.935C81.6783 100.485 81.7533 100.965 81.9533 101.375C82.1633 101.785 82.4533 102.105 82.8233 102.335C83.2033 102.565 83.6333 102.68 84.1133 102.68C84.6033 102.68 85.0183 102.57 85.3583 102.35C85.7083 102.13 85.9833 101.845 86.1833 101.495L87.5633 102.17C87.4033 102.55 87.1533 102.895 86.8133 103.205C86.4833 103.505 86.0833 103.745 85.6133 103.925C85.1533 104.095 84.6483 104.18 84.0983 104.18ZM95.6196 104.09C94.7696 104.09 94.1096 103.85 93.6396 103.37C93.1696 102.89 92.9346 102.215 92.9346 101.345V97.415H91.5096V95.885H91.7346C92.1146 95.885 92.4096 95.775 92.6196 95.555C92.8296 95.335 92.9346 95.035 92.9346 94.655V94.025H94.6296V95.885H96.4746V97.415H94.6296V101.27C94.6296 101.55 94.6746 101.79 94.7646 101.99C94.8546 102.18 94.9996 102.33 95.1996 102.44C95.3996 102.54 95.6596 102.59 95.9796 102.59C96.0596 102.59 96.1496 102.585 96.2496 102.575C96.3496 102.565 96.4446 102.555 96.5346 102.545V104C96.3946 104.02 96.2396 104.04 96.0696 104.06C95.8996 104.08 95.7496 104.09 95.6196 104.09ZM101.957 104.18C101.177 104.18 100.462 103.995 99.8122 103.625C99.1722 103.255 98.6622 102.75 98.2822 102.11C97.9022 101.47 97.7122 100.745 97.7122 99.935C97.7122 99.115 97.9022 98.39 98.2822 97.76C98.6622 97.12 99.1722 96.62 99.8122 96.26C100.452 95.89 101.167 95.705 101.957 95.705C102.757 95.705 103.472 95.89 104.102 96.26C104.742 96.62 105.247 97.12 105.617 97.76C105.997 98.39 106.187 99.115 106.187 99.935C106.187 100.755 105.997 101.485 105.617 102.125C105.237 102.765 104.727 103.27 104.087 103.64C103.447 104 102.737 104.18 101.957 104.18ZM101.957 102.605C102.437 102.605 102.862 102.49 103.232 102.26C103.602 102.03 103.892 101.715 104.102 101.315C104.322 100.905 104.432 100.445 104.432 99.935C104.432 99.425 104.322 98.97 104.102 98.57C103.892 98.17 103.602 97.855 103.232 97.625C102.862 97.395 102.437 97.28 101.957 97.28C101.487 97.28 101.062 97.395 100.682 97.625C100.312 97.855 100.017 98.17 99.7972 98.57C99.5872 98.97 99.4822 99.425 99.4822 99.935C99.4822 100.445 99.5872 100.905 99.7972 101.315C100.017 101.715 100.312 102.03 100.682 102.26C101.062 102.49 101.487 102.605 101.957 102.605ZM114.319 104.18C113.509 104.18 112.789 103.995 112.159 103.625C111.539 103.245 111.044 102.735 110.674 102.095C110.314 101.455 110.134 100.73 110.134 99.92C110.134 99.12 110.314 98.4 110.674 97.76C111.034 97.12 111.529 96.62 112.159 96.26C112.789 95.89 113.509 95.705 114.319 95.705C114.869 95.705 115.384 95.805 115.864 96.005C116.344 96.195 116.759 96.46 117.109 96.8C117.469 97.14 117.734 97.535 117.904 97.985L116.419 98.675C116.249 98.255 115.974 97.92 115.594 97.67C115.224 97.41 114.799 97.28 114.319 97.28C113.859 97.28 113.444 97.395 113.074 97.625C112.714 97.845 112.429 98.16 112.219 98.57C112.009 98.97 111.904 99.425 111.904 99.935C111.904 100.445 112.009 100.905 112.219 101.315C112.429 101.715 112.714 102.03 113.074 102.26C113.444 102.49 113.859 102.605 114.319 102.605C114.809 102.605 115.234 102.48 115.594 102.23C115.964 101.97 116.239 101.625 116.419 101.195L117.904 101.9C117.744 102.33 117.484 102.72 117.124 103.07C116.774 103.41 116.359 103.68 115.879 103.88C115.399 104.08 114.879 104.18 114.319 104.18ZM119.561 104V92.645H121.256V104H119.561ZM127.153 104.18C126.373 104.18 125.658 103.995 125.008 103.625C124.368 103.255 123.858 102.75 123.478 102.11C123.098 101.47 122.908 100.745 122.908 99.935C122.908 99.115 123.098 98.39 123.478 97.76C123.858 97.12 124.368 96.62 125.008 96.26C125.648 95.89 126.363 95.705 127.153 95.705C127.953 95.705 128.668 95.89 129.298 96.26C129.938 96.62 130.443 97.12 130.813 97.76C131.193 98.39 131.383 99.115 131.383 99.935C131.383 100.755 131.193 101.485 130.813 102.125C130.433 102.765 129.923 103.27 129.283 103.64C128.643 104 127.933 104.18 127.153 104.18ZM127.153 102.605C127.633 102.605 128.058 102.49 128.428 102.26C128.798 102.03 129.088 101.715 129.298 101.315C129.518 100.905 129.628 100.445 129.628 99.935C129.628 99.425 129.518 98.97 129.298 98.57C129.088 98.17 128.798 97.855 128.428 97.625C128.058 97.395 127.633 97.28 127.153 97.28C126.683 97.28 126.258 97.395 125.878 97.625C125.508 97.855 125.213 98.17 124.993 98.57C124.783 98.97 124.678 99.425 124.678 99.935C124.678 100.445 124.783 100.905 124.993 101.315C125.213 101.715 125.508 102.03 125.878 102.26C126.258 102.49 126.683 102.605 127.153 102.605ZM136.037 104.18C135.207 104.18 134.477 103.975 133.847 103.565C133.227 103.155 132.792 102.605 132.542 101.915L133.847 101.3C134.067 101.76 134.367 102.125 134.747 102.395C135.137 102.665 135.567 102.8 136.037 102.8C136.437 102.8 136.762 102.71 137.012 102.53C137.262 102.35 137.387 102.105 137.387 101.795C137.387 101.595 137.332 101.435 137.222 101.315C137.112 101.185 136.972 101.08 136.802 101C136.642 100.92 136.477 100.86 136.307 100.82L135.032 100.46C134.332 100.26 133.807 99.96 133.457 99.56C133.117 99.15 132.947 98.675 132.947 98.135C132.947 97.645 133.072 97.22 133.322 96.86C133.572 96.49 133.917 96.205 134.357 96.005C134.797 95.805 135.292 95.705 135.842 95.705C136.582 95.705 137.242 95.89 137.822 96.26C138.402 96.62 138.812 97.125 139.052 97.775L137.747 98.39C137.587 98 137.332 97.69 136.982 97.46C136.642 97.23 136.257 97.115 135.827 97.115C135.457 97.115 135.162 97.205 134.942 97.385C134.722 97.555 134.612 97.78 134.612 98.06C134.612 98.25 134.662 98.41 134.762 98.54C134.862 98.66 134.992 98.76 135.152 98.84C135.312 98.91 135.477 98.97 135.647 99.02L136.967 99.41C137.637 99.6 138.152 99.9 138.512 100.31C138.872 100.71 139.052 101.19 139.052 101.75C139.052 102.23 138.922 102.655 138.662 103.025C138.412 103.385 138.062 103.67 137.612 103.88C137.162 104.08 136.637 104.18 136.037 104.18ZM144.523 104.18C143.713 104.18 142.993 103.995 142.363 103.625C141.743 103.245 141.258 102.735 140.908 102.095C140.558 101.445 140.383 100.72 140.383 99.92C140.383 99.1 140.558 98.375 140.908 97.745C141.268 97.115 141.748 96.62 142.348 96.26C142.948 95.89 143.628 95.705 144.388 95.705C144.998 95.705 145.543 95.81 146.023 96.02C146.503 96.23 146.908 96.52 147.238 96.89C147.568 97.25 147.818 97.665 147.988 98.135C148.168 98.605 148.258 99.105 148.258 99.635C148.258 99.765 148.253 99.9 148.243 100.04C148.233 100.18 148.213 100.31 148.183 100.43H141.718V99.08H147.223L146.413 99.695C146.513 99.205 146.478 98.77 146.308 98.39C146.148 98 145.898 97.695 145.558 97.475C145.228 97.245 144.838 97.13 144.388 97.13C143.938 97.13 143.538 97.245 143.188 97.475C142.838 97.695 142.568 98.015 142.378 98.435C142.188 98.845 142.113 99.345 142.153 99.935C142.103 100.485 142.178 100.965 142.378 101.375C142.588 101.785 142.878 102.105 143.248 102.335C143.628 102.565 144.058 102.68 144.538 102.68C145.028 102.68 145.443 102.57 145.783 102.35C146.133 102.13 146.408 101.845 146.608 101.495L147.988 102.17C147.828 102.55 147.578 102.895 147.238 103.205C146.908 103.505 146.508 103.745 146.038 103.925C145.578 104.095 145.073 104.18 144.523 104.18ZM156.044 104.09C155.194 104.09 154.534 103.85 154.064 103.37C153.594 102.89 153.359 102.215 153.359 101.345V97.415H151.934V95.885H152.159C152.539 95.885 152.834 95.775 153.044 95.555C153.254 95.335 153.359 95.035 153.359 94.655V94.025H155.054V95.885H156.899V97.415H155.054V101.27C155.054 101.55 155.099 101.79 155.189 101.99C155.279 102.18 155.424 102.33 155.624 102.44C155.824 102.54 156.084 102.59 156.404 102.59C156.484 102.59 156.574 102.585 156.674 102.575C156.774 102.565 156.869 102.555 156.959 102.545V104C156.819 104.02 156.664 104.04 156.494 104.06C156.324 104.08 156.174 104.09 156.044 104.09ZM158.614 104V92.645H160.309V97.475L160.039 97.265C160.239 96.755 160.559 96.37 160.999 96.11C161.439 95.84 161.949 95.705 162.529 95.705C163.129 95.705 163.659 95.835 164.119 96.095C164.579 96.355 164.939 96.715 165.199 97.175C165.459 97.635 165.589 98.16 165.589 98.75V104H163.909V99.215C163.909 98.805 163.829 98.46 163.669 98.18C163.519 97.89 163.309 97.67 163.039 97.52C162.769 97.36 162.459 97.28 162.109 97.28C161.769 97.28 161.459 97.36 161.179 97.52C160.909 97.67 160.694 97.89 160.534 98.18C160.384 98.47 160.309 98.815 160.309 99.215V104H158.614ZM167.403 104V95.885H169.098V104H167.403ZM167.403 94.775V92.825H169.098V94.775H167.403ZM174.079 104.18C173.249 104.18 172.519 103.975 171.889 103.565C171.269 103.155 170.834 102.605 170.584 101.915L171.889 101.3C172.109 101.76 172.409 102.125 172.789 102.395C173.179 102.665 173.609 102.8 174.079 102.8C174.479 102.8 174.804 102.71 175.054 102.53C175.304 102.35 175.429 102.105 175.429 101.795C175.429 101.595 175.374 101.435 175.264 101.315C175.154 101.185 175.014 101.08 174.844 101C174.684 100.92 174.519 100.86 174.349 100.82L173.074 100.46C172.374 100.26 171.849 99.96 171.499 99.56C171.159 99.15 170.989 98.675 170.989 98.135C170.989 97.645 171.114 97.22 171.364 96.86C171.614 96.49 171.959 96.205 172.399 96.005C172.839 95.805 173.334 95.705 173.884 95.705C174.624 95.705 175.284 95.89 175.864 96.26C176.444 96.62 176.854 97.125 177.094 97.775L175.789 98.39C175.629 98 175.374 97.69 175.024 97.46C174.684 97.23 174.299 97.115 173.869 97.115C173.499 97.115 173.204 97.205 172.984 97.385C172.764 97.555 172.654 97.78 172.654 98.06C172.654 98.25 172.704 98.41 172.804 98.54C172.904 98.66 173.034 98.76 173.194 98.84C173.354 98.91 173.519 98.97 173.689 99.02L175.009 99.41C175.679 99.6 176.194 99.9 176.554 100.31C176.914 100.71 177.094 101.19 177.094 101.75C177.094 102.23 176.964 102.655 176.704 103.025C176.454 103.385 176.104 103.67 175.654 103.88C175.204 104.08 174.679 104.18 174.079 104.18ZM184.377 104.18C183.547 104.18 182.817 103.975 182.187 103.565C181.567 103.155 181.132 102.605 180.882 101.915L182.187 101.3C182.407 101.76 182.707 102.125 183.087 102.395C183.477 102.665 183.907 102.8 184.377 102.8C184.777 102.8 185.102 102.71 185.352 102.53C185.602 102.35 185.727 102.105 185.727 101.795C185.727 101.595 185.672 101.435 185.562 101.315C185.452 101.185 185.312 101.08 185.142 101C184.982 100.92 184.817 100.86 184.647 100.82L183.372 100.46C182.672 100.26 182.147 99.96 181.797 99.56C181.457 99.15 181.287 98.675 181.287 98.135C181.287 97.645 181.412 97.22 181.662 96.86C181.912 96.49 182.257 96.205 182.697 96.005C183.137 95.805 183.632 95.705 184.182 95.705C184.922 95.705 185.582 95.89 186.162 96.26C186.742 96.62 187.152 97.125 187.392 97.775L186.087 98.39C185.927 98 185.672 97.69 185.322 97.46C184.982 97.23 184.597 97.115 184.167 97.115C183.797 97.115 183.502 97.205 183.282 97.385C183.062 97.555 182.952 97.78 182.952 98.06C182.952 98.25 183.002 98.41 183.102 98.54C183.202 98.66 183.332 98.76 183.492 98.84C183.652 98.91 183.817 98.97 183.987 99.02L185.307 99.41C185.977 99.6 186.492 99.9 186.852 100.31C187.212 100.71 187.392 101.19 187.392 101.75C187.392 102.23 187.262 102.655 187.002 103.025C186.752 103.385 186.402 103.67 185.952 103.88C185.502 104.08 184.977 104.18 184.377 104.18ZM191.948 104.18C191.338 104.18 190.803 104.045 190.343 103.775C189.883 103.495 189.523 103.11 189.263 102.62C189.013 102.12 188.888 101.545 188.888 100.895V95.885H190.583V100.745C190.583 101.115 190.658 101.44 190.808 101.72C190.958 102 191.168 102.22 191.438 102.38C191.708 102.53 192.018 102.605 192.368 102.605C192.728 102.605 193.043 102.525 193.313 102.365C193.583 102.205 193.793 101.98 193.943 101.69C194.103 101.4 194.183 101.06 194.183 100.67V95.885H195.863V104H194.258V102.41L194.438 102.62C194.248 103.12 193.933 103.505 193.493 103.775C193.053 104.045 192.538 104.18 191.948 104.18ZM197.842 107V95.885H199.462V97.565L199.267 97.175C199.567 96.715 199.967 96.355 200.467 96.095C200.967 95.835 201.537 95.705 202.177 95.705C202.947 95.705 203.637 95.89 204.247 96.26C204.867 96.63 205.352 97.135 205.702 97.775C206.062 98.415 206.242 99.135 206.242 99.935C206.242 100.735 206.062 101.455 205.702 102.095C205.352 102.735 204.872 103.245 204.262 103.625C203.652 103.995 202.957 104.18 202.177 104.18C201.547 104.18 200.972 104.05 200.452 103.79C199.942 103.53 199.547 103.155 199.267 102.665L199.537 102.35V107H197.842ZM202.012 102.605C202.492 102.605 202.917 102.49 203.287 102.26C203.657 102.03 203.947 101.715 204.157 101.315C204.377 100.905 204.487 100.445 204.487 99.935C204.487 99.425 204.377 98.97 204.157 98.57C203.947 98.17 203.657 97.855 203.287 97.625C202.917 97.395 202.492 97.28 202.012 97.28C201.542 97.28 201.117 97.395 200.737 97.625C200.367 97.855 200.072 98.17 199.852 98.57C199.642 98.97 199.537 99.425 199.537 99.935C199.537 100.445 199.642 100.905 199.852 101.315C200.072 101.715 200.367 102.03 200.737 102.26C201.117 102.49 201.542 102.605 202.012 102.605ZM207.891 107V95.885H209.511V97.565L209.316 97.175C209.616 96.715 210.016 96.355 210.516 96.095C211.016 95.835 211.586 95.705 212.226 95.705C212.996 95.705 213.686 95.89 214.296 96.26C214.916 96.63 215.401 97.135 215.751 97.775C216.111 98.415 216.291 99.135 216.291 99.935C216.291 100.735 216.111 101.455 215.751 102.095C215.401 102.735 214.921 103.245 214.311 103.625C213.701 103.995 213.006 104.18 212.226 104.18C211.596 104.18 211.021 104.05 210.501 103.79C209.991 103.53 209.596 103.155 209.316 102.665L209.586 102.35V107H207.891ZM212.061 102.605C212.541 102.605 212.966 102.49 213.336 102.26C213.706 102.03 213.996 101.715 214.206 101.315C214.426 100.905 214.536 100.445 214.536 99.935C214.536 99.425 214.426 98.97 214.206 98.57C213.996 98.17 213.706 97.855 213.336 97.625C212.966 97.395 212.541 97.28 212.061 97.28C211.591 97.28 211.166 97.395 210.786 97.625C210.416 97.855 210.121 98.17 209.901 98.57C209.691 98.97 209.586 99.425 209.586 99.935C209.586 100.445 209.691 100.905 209.901 101.315C210.121 101.715 210.416 102.03 210.786 102.26C211.166 102.49 211.591 102.605 212.061 102.605ZM221.855 104.18C221.075 104.18 220.36 103.995 219.71 103.625C219.07 103.255 218.56 102.75 218.18 102.11C217.8 101.47 217.61 100.745 217.61 99.935C217.61 99.115 217.8 98.39 218.18 97.76C218.56 97.12 219.07 96.62 219.71 96.26C220.35 95.89 221.065 95.705 221.855 95.705C222.655 95.705 223.37 95.89 224 96.26C224.64 96.62 225.145 97.12 225.515 97.76C225.895 98.39 226.085 99.115 226.085 99.935C226.085 100.755 225.895 101.485 225.515 102.125C225.135 102.765 224.625 103.27 223.985 103.64C223.345 104 222.635 104.18 221.855 104.18ZM221.855 102.605C222.335 102.605 222.76 102.49 223.13 102.26C223.5 102.03 223.79 101.715 224 101.315C224.22 100.905 224.33 100.445 224.33 99.935C224.33 99.425 224.22 98.97 224 98.57C223.79 98.17 223.5 97.855 223.13 97.625C222.76 97.395 222.335 97.28 221.855 97.28C221.385 97.28 220.96 97.395 220.58 97.625C220.21 97.855 219.915 98.17 219.695 98.57C219.485 98.97 219.38 99.425 219.38 99.935C219.38 100.445 219.485 100.905 219.695 101.315C219.915 101.715 220.21 102.03 220.58 102.26C220.96 102.49 221.385 102.605 221.855 102.605ZM227.74 104V95.885H229.36V97.52L229.21 97.28C229.39 96.75 229.68 96.37 230.08 96.14C230.48 95.9 230.96 95.78 231.52 95.78H232.015V97.325H231.31C230.75 97.325 230.295 97.5 229.945 97.85C229.605 98.19 229.435 98.68 229.435 99.32V104H227.74ZM236.831 104.09C235.981 104.09 235.321 103.85 234.851 103.37C234.381 102.89 234.146 102.215 234.146 101.345V97.415H232.721V95.885H232.946C233.326 95.885 233.621 95.775 233.831 95.555C234.041 95.335 234.146 95.035 234.146 94.655V94.025H235.841V95.885H237.686V97.415H235.841V101.27C235.841 101.55 235.886 101.79 235.976 101.99C236.066 102.18 236.211 102.33 236.411 102.44C236.611 102.54 236.871 102.59 237.191 102.59C237.271 102.59 237.361 102.585 237.461 102.575C237.561 102.565 237.656 102.555 237.746 102.545V104C237.606 104.02 237.451 104.04 237.281 104.06C237.111 104.08 236.961 104.09 236.831 104.09ZM245.532 104.09C244.682 104.09 244.022 103.85 243.552 103.37C243.082 102.89 242.847 102.215 242.847 101.345V97.415H241.422V95.885H241.647C242.027 95.885 242.322 95.775 242.532 95.555C242.742 95.335 242.847 95.035 242.847 94.655V94.025H244.542V95.885H246.387V97.415H244.542V101.27C244.542 101.55 244.587 101.79 244.677 101.99C244.767 102.18 244.912 102.33 245.112 102.44C245.312 102.54 245.572 102.59 245.892 102.59C245.972 102.59 246.062 102.585 246.162 102.575C246.262 102.565 246.357 102.555 246.447 102.545V104C246.307 104.02 246.152 104.04 245.982 104.06C245.812 104.08 245.662 104.09 245.532 104.09ZM248.101 104V95.885H249.796V104H248.101ZM248.101 94.775V92.825H249.796V94.775H248.101ZM255.633 104.18C254.823 104.18 254.103 103.995 253.473 103.625C252.853 103.245 252.358 102.735 251.988 102.095C251.628 101.455 251.448 100.73 251.448 99.92C251.448 99.12 251.628 98.4 251.988 97.76C252.348 97.12 252.843 96.62 253.473 96.26C254.103 95.89 254.823 95.705 255.633 95.705C256.183 95.705 256.698 95.805 257.178 96.005C257.658 96.195 258.073 96.46 258.423 96.8C258.783 97.14 259.048 97.535 259.218 97.985L257.733 98.675C257.563 98.255 257.288 97.92 256.908 97.67C256.538 97.41 256.113 97.28 255.633 97.28C255.173 97.28 254.758 97.395 254.388 97.625C254.028 97.845 253.743 98.16 253.533 98.57C253.323 98.97 253.218 99.425 253.218 99.935C253.218 100.445 253.323 100.905 253.533 101.315C253.743 101.715 254.028 102.03 254.388 102.26C254.758 102.49 255.173 102.605 255.633 102.605C256.123 102.605 256.548 102.48 256.908 102.23C257.278 101.97 257.553 101.625 257.733 101.195L259.218 101.9C259.058 102.33 258.798 102.72 258.438 103.07C258.088 103.41 257.673 103.68 257.193 103.88C256.713 104.08 256.193 104.18 255.633 104.18ZM260.874 104V92.645H262.569V100.25L261.909 100.085L265.974 95.885H268.089L265.029 99.14L268.224 104H266.274L263.424 99.695L264.429 99.56L262.029 102.11L262.569 100.985V104H260.874ZM273.049 104.18C272.239 104.18 271.519 103.995 270.889 103.625C270.269 103.245 269.784 102.735 269.434 102.095C269.084 101.445 268.909 100.72 268.909 99.92C268.909 99.1 269.084 98.375 269.434 97.745C269.794 97.115 270.274 96.62 270.874 96.26C271.474 95.89 272.154 95.705 272.914 95.705C273.524 95.705 274.069 95.81 274.549 96.02C275.029 96.23 275.434 96.52 275.764 96.89C276.094 97.25 276.344 97.665 276.514 98.135C276.694 98.605 276.784 99.105 276.784 99.635C276.784 99.765 276.779 99.9 276.769 100.04C276.759 100.18 276.739 100.31 276.709 100.43H270.244V99.08H275.749L274.939 99.695C275.039 99.205 275.004 98.77 274.834 98.39C274.674 98 274.424 97.695 274.084 97.475C273.754 97.245 273.364 97.13 272.914 97.13C272.464 97.13 272.064 97.245 271.714 97.475C271.364 97.695 271.094 98.015 270.904 98.435C270.714 98.845 270.639 99.345 270.679 99.935C270.629 100.485 270.704 100.965 270.904 101.375C271.114 101.785 271.404 102.105 271.774 102.335C272.154 102.565 272.584 102.68 273.064 102.68C273.554 102.68 273.969 102.57 274.309 102.35C274.659 102.13 274.934 101.845 275.134 101.495L276.514 102.17C276.354 102.55 276.104 102.895 275.764 103.205C275.434 103.505 275.034 103.745 274.564 103.925C274.104 104.095 273.599 104.18 273.049 104.18ZM281.948 104.09C281.098 104.09 280.438 103.85 279.968 103.37C279.498 102.89 279.263 102.215 279.263 101.345V97.415H277.838V95.885H278.063C278.443 95.885 278.738 95.775 278.948 95.555C279.158 95.335 279.263 95.035 279.263 94.655V94.025H280.958V95.885H282.803V97.415H280.958V101.27C280.958 101.55 281.003 101.79 281.093 101.99C281.183 102.18 281.328 102.33 281.528 102.44C281.728 102.54 281.988 102.59 282.308 102.59C282.388 102.59 282.478 102.585 282.578 102.575C282.678 102.565 282.773 102.555 282.863 102.545V104C282.723 104.02 282.568 104.04 282.398 104.06C282.228 104.08 282.078 104.09 281.948 104.09ZM286.467 100.67V100.415C286.467 99.975 286.537 99.585 286.677 99.245C286.827 98.905 287.012 98.6 287.232 98.33C287.462 98.05 287.697 97.795 287.937 97.565C288.277 97.245 288.577 96.935 288.837 96.635C289.107 96.335 289.242 95.985 289.242 95.585C289.242 95.335 289.182 95.11 289.062 94.91C288.942 94.7 288.762 94.535 288.522 94.415C288.292 94.285 288.007 94.22 287.667 94.22C287.197 94.22 286.792 94.365 286.452 94.655C286.122 94.935 285.912 95.315 285.822 95.795L284.247 95.42C284.337 94.87 284.537 94.39 284.847 93.98C285.167 93.56 285.567 93.235 286.047 93.005C286.537 92.765 287.087 92.645 287.697 92.645C288.387 92.645 288.977 92.785 289.467 93.065C289.967 93.335 290.347 93.69 290.607 94.13C290.867 94.57 290.997 95.045 290.997 95.555C290.997 95.965 290.912 96.335 290.742 96.665C290.582 96.985 290.372 97.28 290.112 97.55C289.862 97.82 289.602 98.085 289.332 98.345C289.012 98.655 288.727 98.98 288.477 99.32C288.237 99.65 288.117 100.04 288.117 100.49V100.67H286.467ZM286.467 104V102.05H288.192V104H286.467Z" fill="#404D58"/>
<defs>
<linearGradient id="paint0_linear_711_16192" x1="122.822" y1="9.99999" x2="172.668" y2="11.7907" gradientUnits="userSpaceOnUse">
<stop stop-color="#EA5A5A"/>
<stop offset="1" stop-color="#FB6C6C"/>
</linearGradient>
<linearGradient id="paint1_linear_711_16192" x1="146.557" y1="-51" x2="200.226" y2="277.8" gradientUnits="userSpaceOnUse">
<stop stop-color="white"/>
<stop offset="1" stop-color="white" stop-opacity="0"/>
</linearGradient>
<linearGradient id="paint2_linear_711_16192" x1="236.061" y1="39.4968" x2="-92.7393" y2="93.1653" gradientUnits="userSpaceOnUse">
<stop stop-color="white"/>
<stop offset="1" stop-color="white" stop-opacity="0"/>
</linearGradient>
</defs>
</svg>
