<svg width="56" height="56" viewBox="0 0 56 56" fill="none" xmlns="http://www.w3.org/2000/svg">
<g opacity="0.4" clip-path="url(#clip0_1029_23873)">
<g clip-path="url(#clip1_1029_23873)">
<path d="M28 56C43.5168 56 56 43.5168 56 28C56 12.4832 43.5168 0 28 0C12.4832 0 0 12.4832 0 28C0 43.5168 12.4832 56 28 56Z" fill="#2775CA"/>
<path d="M35.6996 32.4324C35.6996 28.3492 33.2496 26.9492 28.3496 26.3659C24.8496 25.8992 24.1496 24.9659 24.1496 23.3324C24.1496 21.6989 25.3164 20.6492 27.6496 20.6492C29.7496 20.6492 30.9164 21.3492 31.4996 23.0992C31.6164 23.4492 31.9664 23.6824 32.3164 23.6824H34.1829C34.6496 23.6824 34.9996 23.3324 34.9996 22.8659V22.7492C34.5329 20.1824 32.4329 18.1992 29.7496 17.9659V15.1659C29.7496 14.6992 29.3996 14.3492 28.8164 14.2324H27.0664C26.5996 14.2324 26.2496 14.5824 26.1329 15.1659V17.8492C22.6329 18.3159 20.4164 20.6492 20.4164 23.5659C20.4164 27.4159 22.7496 28.9324 27.6496 29.5159C30.9164 30.0992 31.9664 30.7992 31.9664 32.6659C31.9664 34.5327 30.3329 35.8159 28.1164 35.8159C25.0829 35.8159 24.0329 34.5324 23.6829 32.7824C23.5664 32.3159 23.2164 32.0824 22.8664 32.0824H20.8829C20.4164 32.0824 20.0664 32.4324 20.0664 32.8992V33.0159C20.5329 35.9324 22.3996 38.0324 26.2496 38.6159V41.4159C26.2496 41.8824 26.5996 42.2324 27.1829 42.3492H28.9329C29.3996 42.3492 29.7496 41.9992 29.8664 41.4159V38.6159C33.3664 38.0324 35.6996 35.5824 35.6996 32.4324Z" fill="white"/>
<path d="M22.0503 44.6835C12.9503 41.417 8.28356 31.267 11.6671 22.2835C13.4171 17.3835 17.2671 13.6502 22.0503 11.9002C22.5171 11.667 22.7503 11.317 22.7503 10.7335V9.10023C22.7503 8.63347 22.5171 8.28347 22.0503 8.16699C21.9336 8.16699 21.7003 8.16699 21.5836 8.28347C10.5003 11.7835 4.43356 23.567 7.93356 34.6502C10.0336 41.1835 15.0503 46.2002 21.5836 48.3002C22.0503 48.5335 22.5171 48.3002 22.6336 47.8335C22.7503 47.717 22.7503 47.6002 22.7503 47.367V45.7335C22.7503 45.3835 22.4003 44.917 22.0503 44.6835ZM34.4171 8.28347C33.9503 8.05023 33.4836 8.28347 33.3671 8.75023C33.2503 8.86699 33.2503 8.98347 33.2503 9.21699V10.8502C33.2503 11.317 33.6003 11.7835 33.9503 12.017C43.0503 15.2835 47.7171 25.4335 44.3336 34.417C42.5836 39.317 38.7336 43.0502 33.9503 44.8002C33.4836 45.0335 33.2503 45.3835 33.2503 45.967V47.6002C33.2503 48.067 33.4836 48.417 33.9503 48.5335C34.0671 48.5335 34.3003 48.5335 34.4171 48.417C45.5003 44.917 51.5671 33.1335 48.0671 22.0502C45.9671 15.4002 40.8336 10.3835 34.4171 8.28347Z" fill="white"/>
</g>
</g>
<rect x="56" y="56" width="56" height="56" transform="rotate(-180 56 56)" fill="url(#paint0_linear_1029_23873)"/>
<defs>
<linearGradient id="paint0_linear_1029_23873" x1="84" y1="56" x2="84" y2="112" gradientUnits="userSpaceOnUse">
<stop stop-color="white"/>
<stop offset="1" stop-color="white" stop-opacity="0"/>
</linearGradient>
<clipPath id="clip0_1029_23873">
<rect width="56" height="56" fill="white"/>
</clipPath>
<clipPath id="clip1_1029_23873">
<rect width="56" height="56" fill="white"/>
</clipPath>
</defs>
</svg>
