<svg width="136" height="136" viewBox="0 0 136 136" fill="none" xmlns="http://www.w3.org/2000/svg">
<circle cx="68" cy="68" r="68" fill="#293644"/>
<path d="M61.5162 55.836V71.784C61.5162 72.756 61.3722 73.62 61.0482 74.376C60.7602 75.132 60.3642 75.708 59.8242 76.212C59.3202 76.716 58.7082 77.076 57.9882 77.328C57.2322 77.616 56.3682 77.724 55.4322 77.724C54.4962 77.724 53.6322 77.616 52.8762 77.328C52.1562 77.076 51.5442 76.716 51.0402 76.212C50.5002 75.708 50.1042 75.096 49.8162 74.376C49.4922 73.62 49.3482 72.756 49.3482 71.784V55.836H45.2082V71.784C45.2082 73.188 45.4242 74.52 45.9282 75.708C46.3962 76.896 47.1162 77.976 48.0522 78.84C48.9522 79.704 50.0682 80.388 51.3642 80.856C52.5882 81.288 53.9562 81.504 55.4322 81.504C56.9082 81.504 58.2762 81.288 59.5362 80.856C60.7962 80.388 61.9122 79.704 62.8482 78.804C63.7482 77.94 64.4682 76.896 64.9362 75.708C65.4402 74.52 65.6922 73.188 65.6922 71.784V55.836H61.5162ZM86.2814 55.836V67.86C86.2814 72.72 86.7854 75.312 86.7854 75.312C86.7854 75.312 85.7774 73.008 83.2574 69.48L73.5014 55.836H69.6134V81H73.7534V68.976C73.7534 64.116 73.2854 61.524 73.2854 61.524C73.2854 61.524 74.2934 63.828 76.7774 67.356L86.5334 81H90.4574V55.836H86.2814Z" fill="#B7BCC1"/>
</svg>
