<svg width="18" height="16" viewBox="0 0 18 16" fill="none" xmlns="http://www.w3.org/2000/svg">
<path d="M0.666992 1.3275C0.668517 1.10865 0.756076 0.899181 0.910753 0.744348C1.06543 0.589515 1.27481 0.501746 1.49366 0.5H16.507C16.9637 0.5 17.3337 0.870833 17.3337 1.3275V14.6725C17.3321 14.8914 17.2446 15.1008 17.0899 15.2557C16.9352 15.4105 16.7258 15.4983 16.507 15.5H1.49366C1.27434 15.4998 1.06407 15.4125 0.909067 15.2573C0.754061 15.1022 0.666992 14.8918 0.666992 14.6725V1.3275ZM5.66699 2.16667V13.8333H12.3337V2.16667H5.66699ZM2.33366 2.16667V3.83333H4.00033V2.16667H2.33366ZM14.0003 2.16667V3.83333H15.667V2.16667H14.0003ZM2.33366 5.5V7.16667H4.00033V5.5H2.33366ZM14.0003 5.5V7.16667H15.667V5.5H14.0003ZM2.33366 8.83333V10.5H4.00033V8.83333H2.33366ZM14.0003 8.83333V10.5H15.667V8.83333H14.0003ZM2.33366 12.1667V13.8333H4.00033V12.1667H2.33366ZM14.0003 12.1667V13.8333H15.667V12.1667H14.0003Z" fill="#889098"/>
</svg>
