<svg width="21" height="21" viewBox="0 0 21 21" fill="none" xmlns="http://www.w3.org/2000/svg">
<path d="M8 18.9996H4V20.9996H2V18.9996H1C0.734784 18.9996 0.48043 18.8943 0.292893 18.7067C0.105357 18.5192 0 18.2648 0 17.9996V2.99961C0 2.7344 0.105357 2.48004 0.292893 2.29251C0.48043 2.10497 0.734784 1.99961 1 1.99961H8V0.589614C8.00003 0.517034 8.01587 0.445332 8.0464 0.379488C8.07694 0.313644 8.12144 0.255237 8.17682 0.208325C8.2322 0.161413 8.29713 0.12712 8.3671 0.107829C8.43707 0.0885375 8.5104 0.0847105 8.582 0.0966136L19.164 1.86061C19.3975 1.89943 19.6097 2.01982 19.7627 2.20037C19.9158 2.38091 19.9999 2.60991 20 2.84661V4.99961H21V6.99961H20V13.9996H21V15.9996H20V18.1526C19.9999 18.3893 19.9158 18.6183 19.7627 18.7989C19.6097 18.9794 19.3975 19.0998 19.164 19.1386L18 19.3326V20.9996H16V19.6666L8.582 20.9026C8.5104 20.9145 8.43707 20.9107 8.3671 20.8914C8.29713 20.8721 8.2322 20.8378 8.17682 20.7909C8.12144 20.744 8.07694 20.6856 8.0464 20.6197C8.01587 20.5539 8.00003 20.4822 8 20.4096V18.9996ZM10 18.6396L18 17.3056V3.69361L10 2.36061V18.6386V18.6396ZM14.5 12.9996C13.672 12.9996 13 11.8796 13 10.4996C13 9.11961 13.672 7.99961 14.5 7.99961C15.328 7.99961 16 9.11961 16 10.4996C16 11.8796 15.328 12.9996 14.5 12.9996Z" fill="url(#paint0_linear_865_11677)"/>
<defs>
<linearGradient id="paint0_linear_865_11677" x1="10.5" y1="0.0898437" x2="10.5" y2="20.9996" gradientUnits="userSpaceOnUse">
<stop stop-color="#58636E"/>
<stop offset="1" stop-color="#11202F"/>
</linearGradient>
</defs>
</svg>
